<svg width="1200" height="675" viewBox="0 0 1200 675" fill="none" xmlns="http://www.w3.org/2000/svg">
<rect width="1200" height="675" fill="#FAFDF0"/>
<rect x="40" y="176" width="32" height="32.1304" rx="16" fill="#E9FDA6"/>
<path d="M57.4138 185.878V197.565H55.9112V188.633H55.8778C55.7276 189.484 55.1265 189.868 54.225 189.868H53.2566V188.382H54.225C55.4271 188.382 55.9279 187.798 55.9279 186.663V185.878H57.4138Z" fill="#0D4A2F"/>
<path d="M87.68 195.3C83.58 195.3 80.8 192.42 80.8 187.98C80.8 183.54 83.38 180.7 87.68 180.7C91.66 180.7 93.86 183.26 94.14 186.36H92.22C92.06 184.24 90.48 182.36 87.68 182.36C84.62 182.36 82.74 184.5 82.74 187.98C82.74 191.46 84.9 193.64 87.68 193.64C90.42 193.64 91.98 191.6 92.22 189.9H94.14C93.78 192.78 91.54 195.3 87.68 195.3ZM95.8852 195V179.38H97.6852V184.28C97.6852 184.78 97.6852 185.16 97.6452 186.04H97.6852C98.2052 184.74 99.4052 183.7 101.205 183.7C103.545 183.7 105.045 185.42 105.045 188.06V195H103.245V188.58C103.245 186.16 102.205 185.3 100.765 185.3C99.1452 185.3 97.6852 186.38 97.6852 189.04V195H95.8852ZM112.174 195.3C109.134 195.3 106.714 193.2 106.714 189.5C106.714 185.8 109.134 183.7 112.174 183.7C115.214 183.7 117.634 185.8 117.634 189.5C117.634 193.2 115.214 195.3 112.174 195.3ZM108.594 189.5C108.594 192.3 110.174 193.74 112.174 193.74C114.174 193.74 115.754 192.3 115.754 189.5C115.754 186.7 114.174 185.26 112.174 185.26C110.174 185.26 108.594 186.7 108.594 189.5ZM124.215 195.3C121.175 195.3 118.755 193.2 118.755 189.5C118.755 185.8 121.175 183.7 124.215 183.7C127.255 183.7 129.675 185.8 129.675 189.5C129.675 193.2 127.255 195.3 124.215 195.3ZM120.635 189.5C120.635 192.3 122.215 193.74 124.215 193.74C126.215 193.74 127.795 192.3 127.795 189.5C127.795 186.7 126.215 185.26 124.215 185.26C122.215 185.26 120.635 186.7 120.635 189.5ZM135.144 195.3C132.384 195.3 130.724 193.76 130.604 191.36H132.484C132.564 193 133.624 193.74 135.144 193.74C136.684 193.74 137.664 192.98 137.664 191.76C137.664 190.8 137.044 190.18 135.544 190.18H134.364C132.124 190.18 130.804 188.96 130.804 187.14C130.804 185.18 132.344 183.7 135.004 183.7C137.744 183.7 139.224 185.26 139.344 187.56H137.464C137.384 186.1 136.564 185.26 135.004 185.26C133.584 185.26 132.684 185.96 132.684 187.06C132.684 188.04 133.384 188.5 134.504 188.5H135.804C138.284 188.5 139.544 189.92 139.544 191.72C139.544 193.8 137.864 195.3 135.144 195.3ZM145.895 195.3C142.655 195.3 140.495 193 140.495 189.5C140.495 185.96 142.695 183.7 145.855 183.7C148.815 183.7 151.075 185.66 151.075 188.92V190.1H142.395C142.535 192.16 143.795 193.74 145.895 193.74C147.415 193.74 148.595 192.92 149.035 191.62H150.975C150.515 193.78 148.515 195.3 145.895 195.3ZM142.435 188.56H149.195C149.195 186.6 147.955 185.26 145.915 185.26C143.795 185.26 142.675 186.7 142.435 188.56ZM163.98 192.72C163.28 194.48 161.84 195.3 160.1 195.3C158 195.3 156.34 194.1 156.34 191.82C156.34 189.34 158.34 188.38 160.52 188.38H162.26C163.36 188.38 163.92 187.92 163.92 187.06C163.92 185.86 162.82 185.26 161.44 185.26C159.82 185.26 158.68 186.08 158.56 187.56H156.76C156.92 185.22 158.46 183.7 161.44 183.7C164.48 183.7 165.72 185.28 165.72 187.44V192.7C165.72 193.22 165.9 193.4 166.42 193.4H166.92V195H165.74C164.68 195 164.02 194.36 164.02 193.36V192.72H163.98ZM158.22 191.82C158.22 192.84 158.86 193.74 160.44 193.74C162.26 193.74 163.92 192.54 163.92 189.96V188.72H163.88C163.5 189.52 162.8 189.92 161.46 189.92H160.56C158.84 189.92 158.22 190.82 158.22 191.82ZM176.426 195.3C173.666 195.3 172.006 193.76 171.886 191.36H173.766C173.846 193 174.906 193.74 176.426 193.74C177.966 193.74 178.946 192.98 178.946 191.76C178.946 190.8 178.326 190.18 176.826 190.18H175.646C173.406 190.18 172.086 188.96 172.086 187.14C172.086 185.18 173.626 183.7 176.286 183.7C179.026 183.7 180.506 185.26 180.626 187.56H178.746C178.666 186.1 177.846 185.26 176.286 185.26C174.866 185.26 173.966 185.96 173.966 187.06C173.966 188.04 174.666 188.5 175.786 188.5H177.086C179.566 188.5 180.826 189.92 180.826 191.72C180.826 193.8 179.146 195.3 176.426 195.3ZM182.48 195V184H184.28V195H182.48ZM182.46 181.94V180.1H184.3V181.94H182.46ZM186.885 195V184H188.645V186.06H188.685C189.345 184.6 190.625 183.7 192.325 183.7C194.645 183.7 196.045 185.36 196.045 188.4V195H194.245V188.58C194.245 186.2 193.205 185.3 191.765 185.3C190.205 185.3 188.685 186.38 188.685 189.04V195H186.885ZM200.939 199C198.639 199 197.499 197.92 197.499 196.42C197.499 195.3 198.139 194.4 199.399 194.06V194.02C198.559 193.74 198.019 193.1 198.019 192.26C198.019 191.28 198.759 190.66 199.659 190.6L199.919 190.58V190.54C198.659 190.02 197.879 188.94 197.879 187.44C197.879 185.06 199.799 183.7 202.219 183.7C203.779 183.7 205.139 184.3 205.899 185.34H205.939C206.019 184.5 206.499 184 207.339 184H207.759V185.6H207.019C206.539 185.6 206.379 185.8 206.339 186.18C206.479 186.56 206.559 186.98 206.559 187.44C206.559 189.74 204.619 191.2 202.219 191.2H200.739C200.039 191.2 199.599 191.44 199.599 192.02C199.599 192.56 199.979 192.88 200.739 192.88H204.399C206.539 192.88 207.879 194.04 207.879 195.92C207.879 197.82 206.539 199 204.399 199H200.939ZM199.099 195.98C199.099 196.86 199.659 197.48 200.879 197.48H204.319C205.399 197.48 206.079 196.92 206.079 195.96C206.079 195 205.399 194.44 204.319 194.44H200.879C199.719 194.44 199.099 195.06 199.099 195.98ZM199.659 187.46C199.659 189.02 200.899 189.68 202.219 189.68C203.539 189.68 204.779 189.02 204.779 187.46C204.779 185.92 203.539 185.26 202.219 185.26C200.899 185.26 199.659 185.92 199.659 187.46ZM209.152 195V179.38H210.952V195H209.152ZM218.017 195.3C214.777 195.3 212.617 193 212.617 189.5C212.617 185.96 214.817 183.7 217.977 183.7C220.937 183.7 223.197 185.66 223.197 188.92V190.1H214.517C214.657 192.16 215.917 193.74 218.017 193.74C219.537 193.74 220.717 192.92 221.157 191.62H223.097C222.637 193.78 220.637 195.3 218.017 195.3ZM214.557 188.56H221.317C221.317 186.6 220.077 185.26 218.037 185.26C215.917 185.26 214.797 186.7 214.557 188.56ZM88.44 217.72C87.74 219.48 86.3 220.3 84.56 220.3C82.46 220.3 80.8 219.1 80.8 216.82C80.8 214.34 82.8 213.38 84.98 213.38H86.72C87.82 213.38 88.38 212.92 88.38 212.06C88.38 210.86 87.28 210.26 85.9 210.26C84.28 210.26 83.14 211.08 83.02 212.56H81.22C81.38 210.22 82.92 208.7 85.9 208.7C88.94 208.7 90.18 210.28 90.18 212.44V217.7C90.18 218.22 90.36 218.4 90.88 218.4H91.38V220H90.2C89.14 220 88.48 219.36 88.48 218.36V217.72H88.44ZM82.68 216.82C82.68 217.84 83.32 218.74 84.9 218.74C86.72 218.74 88.38 217.54 88.38 214.96V213.72H88.34C87.96 214.52 87.26 214.92 85.92 214.92H85.02C83.3 214.92 82.68 215.82 82.68 216.82ZM96.5788 220.3C93.8188 220.3 92.1588 218.76 92.0388 216.36H93.9188C93.9988 218 95.0588 218.74 96.5788 218.74C98.1188 218.74 99.0988 217.98 99.0988 216.76C99.0988 215.8 98.4788 215.18 96.9788 215.18H95.7988C93.5588 215.18 92.2388 213.96 92.2388 212.14C92.2388 210.18 93.7788 208.7 96.4388 208.7C99.1788 208.7 100.659 210.26 100.779 212.56H98.8988C98.8188 211.1 97.9988 210.26 96.4388 210.26C95.0188 210.26 94.1188 210.96 94.1188 212.06C94.1188 213.04 94.8188 213.5 95.9388 213.5H97.2388C99.7188 213.5 100.979 214.92 100.979 216.72C100.979 218.8 99.2988 220.3 96.5788 220.3ZM106.55 220.3C103.79 220.3 102.13 218.76 102.01 216.36H103.89C103.97 218 105.03 218.74 106.55 218.74C108.09 218.74 109.07 217.98 109.07 216.76C109.07 215.8 108.45 215.18 106.95 215.18H105.77C103.53 215.18 102.21 213.96 102.21 212.14C102.21 210.18 103.75 208.7 106.41 208.7C109.15 208.7 110.63 210.26 110.75 212.56H108.87C108.79 211.1 107.97 210.26 106.41 210.26C104.99 210.26 104.09 210.96 104.09 212.06C104.09 213.04 104.79 213.5 105.91 213.5H107.21C109.69 213.5 110.95 214.92 110.95 216.72C110.95 218.8 109.27 220.3 106.55 220.3ZM117.3 220.3C114.06 220.3 111.9 218 111.9 214.5C111.9 210.96 114.1 208.7 117.26 208.7C120.22 208.7 122.48 210.66 122.48 213.92V215.1H113.8C113.94 217.16 115.2 218.74 117.3 218.74C118.82 218.74 120 217.92 120.44 216.62H122.38C121.92 218.78 119.92 220.3 117.3 220.3ZM113.84 213.56H120.6C120.6 211.6 119.36 210.26 117.32 210.26C115.2 210.26 114.08 211.7 113.84 213.56ZM127.787 220C125.867 220 124.867 219.04 124.867 217.1V210.6H122.667V209H124.867V206H126.667V209H130.147V210.6H126.667V217.1C126.667 218.04 127.147 218.4 127.987 218.4H130.247V220H127.787ZM140.293 220.3C137.693 220.3 135.153 218.3 135.153 214.5C135.153 210.7 137.693 208.7 140.293 208.7C142.153 208.7 143.713 209.7 144.393 211.34H144.433C144.393 210.92 144.393 210.56 144.393 210.14V204.38H146.193V220H144.413V218.86C144.413 218.44 144.413 218.08 144.433 217.66H144.393C143.713 219.3 142.153 220.3 140.293 220.3ZM137.033 214.5C137.033 217.02 138.553 218.74 140.733 218.74C142.913 218.74 144.413 217.02 144.413 214.5C144.413 211.98 142.913 210.26 140.733 210.26C138.553 210.26 137.033 211.98 137.033 214.5ZM153.259 220.3C150.019 220.3 147.859 218 147.859 214.5C147.859 210.96 150.059 208.7 153.219 208.7C156.179 208.7 158.439 210.66 158.439 213.92V215.1H149.759C149.899 217.16 151.159 218.74 153.259 218.74C154.779 218.74 155.959 217.92 156.399 216.62H158.339C157.879 218.78 155.879 220.3 153.259 220.3ZM149.799 213.56H156.559C156.559 211.6 155.319 210.26 153.279 210.26C151.159 210.26 150.039 211.7 149.799 213.56ZM160.058 224V209H161.838V210.14C161.838 210.56 161.838 210.92 161.818 211.34H161.858C162.538 209.7 164.098 208.7 165.958 208.7C168.558 208.7 171.098 210.7 171.098 214.5C171.098 218.3 168.558 220.3 165.958 220.3C164.098 220.3 162.538 219.3 161.858 217.66H161.818C161.858 218.08 161.858 218.44 161.858 218.86V224H160.058ZM161.838 214.5C161.838 217.02 163.338 218.74 165.518 218.74C167.698 218.74 169.218 217.02 169.218 214.5C169.218 211.98 167.698 210.26 165.518 210.26C163.338 210.26 161.838 211.98 161.838 214.5ZM177.675 220.3C174.635 220.3 172.215 218.2 172.215 214.5C172.215 210.8 174.635 208.7 177.675 208.7C180.715 208.7 183.135 210.8 183.135 214.5C183.135 218.2 180.715 220.3 177.675 220.3ZM174.095 214.5C174.095 217.3 175.675 218.74 177.675 218.74C179.675 218.74 181.255 217.3 181.255 214.5C181.255 211.7 179.675 210.26 177.675 210.26C175.675 210.26 174.095 211.7 174.095 214.5ZM188.604 220.3C185.844 220.3 184.184 218.76 184.064 216.36H185.944C186.024 218 187.084 218.74 188.604 218.74C190.144 218.74 191.124 217.98 191.124 216.76C191.124 215.8 190.504 215.18 189.004 215.18H187.824C185.584 215.18 184.264 213.96 184.264 212.14C184.264 210.18 185.804 208.7 188.464 208.7C191.204 208.7 192.684 210.26 192.804 212.56H190.924C190.844 211.1 190.024 210.26 188.464 210.26C187.044 210.26 186.144 210.96 186.144 212.06C186.144 213.04 186.844 213.5 187.964 213.5H189.264C191.744 213.5 193.004 214.92 193.004 216.72C193.004 218.8 191.324 220.3 188.604 220.3ZM194.659 220V209H196.459V220H194.659ZM194.639 206.94V205.1H196.479V206.94H194.639ZM202.634 220C200.714 220 199.714 219.04 199.714 217.1V210.6H197.514V209H199.714V206H201.514V209H204.994V210.6H201.514V217.1C201.514 218.04 201.994 218.4 202.834 218.4H205.094V220H202.634Z" fill="#0D4A2F"/>
<path opacity="0.7" d="M41.078 54V44.2H42.38V48.498H47.35V44.2H48.652V54H47.35V49.66H42.38V54H41.078ZM55.0824 54.21C52.5204 54.21 50.2944 52.376 50.2944 49.1C50.2944 45.824 52.5204 43.99 55.0824 43.99C57.6444 43.99 59.8704 45.824 59.8704 49.1C59.8704 52.376 57.6444 54.21 55.0824 54.21ZM51.6524 49.1C51.6524 51.732 53.1924 53.048 55.0824 53.048C56.9724 53.048 58.5124 51.732 58.5124 49.1C58.5124 46.468 56.9724 45.152 55.0824 45.152C53.1924 45.152 51.6524 46.468 51.6524 49.1ZM63.2411 54L60.5111 44.2H61.8551L63.9831 52.46H64.0111L65.9711 44.2H67.7211L69.6531 52.46H69.6811L71.7951 44.2H73.1391L70.4091 54H68.8691L66.8391 45.712H66.8111L64.7811 54H63.2411ZM77.6503 54V44.2H78.9523V54H77.6503ZM83.6013 54V45.362H80.2413V44.2H88.2632V45.362H84.9033V54H83.6013ZM94.6317 54L91.9017 44.2H93.2457L95.3737 52.46H95.4017L97.3617 44.2H99.1117L101.044 52.46H101.072L103.186 44.2H104.53L101.8 54H100.26L98.2297 45.712H98.2017L96.1717 54H94.6317ZM109.961 54.21C107.399 54.21 105.173 52.376 105.173 49.1C105.173 45.824 107.399 43.99 109.961 43.99C112.523 43.99 114.749 45.824 114.749 49.1C114.749 52.376 112.523 54.21 109.961 54.21ZM106.531 49.1C106.531 51.732 108.071 53.048 109.961 53.048C111.851 53.048 113.391 51.732 113.391 49.1C113.391 46.468 111.851 45.152 109.961 45.152C108.071 45.152 106.531 46.468 106.531 49.1ZM116.383 54V44.2H120.149C122.389 44.2 123.663 45.292 123.663 46.888C123.663 48.148 122.865 49.072 121.451 49.352V49.38C122.627 49.842 123.061 50.738 123.397 51.97L123.957 54H122.613L122.151 52.292C121.647 50.416 121.129 49.954 119.435 49.954H117.685V54H116.383ZM117.685 48.806H119.505C121.325 48.806 122.305 48.176 122.305 47C122.305 45.964 121.535 45.362 120.135 45.362H117.685V48.806ZM125.379 54V44.2H126.681V49.296H126.709L131.161 44.2H132.897L129.033 48.554L133.135 54H131.483L128.193 49.534H128.165L126.681 51.2V54H125.379ZM137.641 54.21C135.107 54.21 133.763 52.81 133.665 50.612H134.981C135.065 52.166 136.003 53.048 137.669 53.048C139.223 53.048 140.147 52.264 140.147 51.06C140.147 50.318 139.797 49.576 138.173 49.576H136.899C134.799 49.576 133.805 48.47 133.805 46.986C133.805 45.208 135.247 43.99 137.557 43.99C140.035 43.99 141.225 45.404 141.323 47.392H140.007C139.923 45.936 139.125 45.152 137.529 45.152C136.045 45.152 135.121 45.838 135.121 46.958C135.121 47.714 135.541 48.316 136.955 48.316H138.229C140.763 48.316 141.463 49.688 141.463 51.032C141.463 52.978 139.993 54.21 137.641 54.21Z" fill="#0D4A2F"/>
<g clip-path="url(#clip0_2324_6706)">
<path d="M521 192.065C521 148.284 556.219 113.065 600 113.065C643.781 113.065 679 148.284 679 192.065C679 235.847 643.781 271.065 600 271.065C556.219 271.065 521 235.847 521 192.065Z" fill="#E9FDA6" stroke="url(#paint0_linear_2324_6706)" stroke-width="2"/>
<path d="M599.993 133.401L599.219 136.03L599.219 212.29L599.993 213.062L635.391 192.137L599.993 133.401Z" fill="#D3F36A"/>
<path d="M599.993 133.401L564.594 192.137L599.993 213.062L599.993 176.047L599.993 133.401Z" fill="#FCFCFC"/>
<path d="M599.991 219.76L599.555 220.292L599.555 247.457L599.991 248.73L635.411 198.847L599.991 219.76Z" fill="#B6D940"/>
<path d="M599.993 248.73L599.993 219.76L564.594 198.847L599.993 248.73Z" fill="white"/>
<path d="M600 213.06L635.398 192.136L600 176.046L600 213.06Z" fill="#06261A"/>
<path d="M564.594 192.136L599.993 213.06L599.993 176.046L564.594 192.136Z" fill="#0D4A2F"/>
</g>
<g clip-path="url(#clip1_2324_6706)">
<path opacity="0.5" d="M521 417.5C521 373.719 556.219 338.5 600 338.5C643.781 338.5 679 373.719 679 417.5C679 461.281 643.781 496.5 600 496.5C556.219 496.5 521 461.281 521 417.5Z" fill="#F7F9FA" stroke="#C8D9EA" stroke-width="2"/>
<g opacity="0.3">
<path d="M617.553 426.817C617.553 417.509 611.968 414.318 600.798 412.988C592.82 411.924 591.224 409.797 591.224 406.073C591.224 402.35 593.884 399.957 599.202 399.957C603.99 399.957 606.649 401.553 607.979 405.542C608.245 406.34 609.043 406.871 609.841 406.871H614.095C615.159 406.871 615.957 406.073 615.957 405.01V404.744C614.893 398.893 610.106 394.372 603.99 393.84V387.458C603.99 386.394 603.192 385.596 601.862 385.33H597.873C596.809 385.33 596.011 386.127 595.745 387.458V393.574C587.767 394.638 582.714 399.957 582.714 406.606C582.714 415.382 588.033 418.839 599.202 420.169C606.649 421.498 609.043 423.094 609.043 427.349C609.043 431.605 605.319 434.53 600.266 434.53C593.351 434.53 590.958 431.604 590.16 427.615C589.895 426.552 589.097 426.019 588.299 426.019H583.777C582.714 426.019 581.916 426.817 581.916 427.881V428.147C582.98 434.795 587.235 439.582 596.011 440.913V447.295C596.011 448.359 596.809 449.157 598.138 449.423H602.128C603.192 449.423 603.99 448.625 604.256 447.295V440.913C612.234 439.582 617.553 433.998 617.553 426.817Z" fill="#476C8D"/>
<path d="M586.437 454.733C565.693 447.287 555.055 424.149 562.768 403.671C566.757 392.501 575.533 383.991 586.437 380.002C587.501 379.471 588.032 378.673 588.032 377.343V373.62C588.032 372.556 587.501 371.758 586.437 371.492C586.171 371.492 585.639 371.492 585.373 371.758C560.108 379.736 546.279 406.597 554.257 431.862C559.044 446.754 570.48 458.19 585.373 462.977C586.437 463.509 587.501 462.977 587.766 461.913C588.032 461.648 588.032 461.381 588.032 460.85V457.126C588.032 456.328 587.235 455.265 586.437 454.733ZM614.627 371.758C613.563 371.226 612.499 371.758 612.234 372.822C611.968 373.088 611.968 373.353 611.968 373.886V377.609C611.968 378.673 612.765 379.736 613.563 380.268C634.307 387.714 644.945 410.852 637.232 431.33C633.243 442.5 624.467 451.01 613.563 454.999C612.499 455.53 611.968 456.328 611.968 457.658V461.381C611.968 462.445 612.499 463.243 613.563 463.509C613.829 463.509 614.361 463.509 614.627 463.243C639.892 455.265 653.721 428.404 645.743 403.139C640.956 387.981 629.254 376.545 614.627 371.758Z" fill="#476C8D"/>
</g>
</g>
<path d="M240 192.5H500" stroke="#0D4A2F"/>
<path opacity="0.7" d="M616.912 629.27C613.222 629.27 610.72 626.678 610.72 622.682C610.72 618.686 613.042 616.13 616.912 616.13C620.494 616.13 622.474 618.434 622.726 621.224H620.998C620.854 619.316 619.432 617.624 616.912 617.624C614.158 617.624 612.466 619.55 612.466 622.682C612.466 625.814 614.41 627.776 616.912 627.776C619.378 627.776 620.782 625.94 620.998 624.41H622.726C622.402 627.002 620.386 629.27 616.912 629.27ZM628.057 629.27C625.915 629.27 624.637 627.776 624.637 625.04V619.1H626.257V624.878C626.257 627.056 627.193 627.83 628.489 627.83C629.947 627.83 631.261 626.858 631.261 624.464V619.1H632.881V629H631.297V627.146H631.261C630.685 628.55 629.533 629.27 628.057 629.27ZM635.573 629V619.1H637.157V620.828H637.193C637.661 619.784 638.201 619.1 639.785 619.1H640.739V620.54H639.569C637.913 620.54 637.193 621.53 637.193 623.42V629H635.573ZM642.059 629V619.1H643.643V620.828H643.679C644.147 619.784 644.687 619.1 646.271 619.1H647.225V620.54H646.055C644.399 620.54 643.679 621.53 643.679 623.42V629H642.059ZM652.455 629.27C649.539 629.27 647.595 627.2 647.595 624.05C647.595 620.864 649.575 618.83 652.419 618.83C655.083 618.83 657.117 620.594 657.117 623.528V624.59H649.305C649.431 626.444 650.565 627.866 652.455 627.866C653.823 627.866 654.885 627.128 655.281 625.958H657.027C656.613 627.902 654.813 629.27 652.455 629.27ZM649.341 623.204H655.425C655.425 621.44 654.309 620.234 652.473 620.234C650.565 620.234 649.557 621.53 649.341 623.204ZM658.934 629V619.1H660.518V620.954H660.554C661.148 619.64 662.3 618.83 663.83 618.83C665.918 618.83 667.178 620.324 667.178 623.06V629H665.558V623.222C665.558 621.08 664.622 620.27 663.326 620.27C661.922 620.27 660.554 621.242 660.554 623.636V629H658.934ZM672.853 629C671.125 629 670.225 628.136 670.225 626.39V620.54H668.245V619.1H670.225V616.4H671.845V619.1H674.977V620.54H671.845V626.39C671.845 627.236 672.277 627.56 673.033 627.56H675.067V629H672.853ZM676.705 629V614.942H678.325V629H676.705ZM679.578 632.6V631.16H682.206L683.358 628.46L679.578 619.1H681.342L684.168 626.57H684.204L687.03 619.1H688.794L683.664 631.844C683.466 632.348 683.088 632.6 682.548 632.6H679.578ZM694.601 629V616.4H703.259V617.894H696.293V621.944H702.557V623.438H696.293V627.506H703.277V629H694.601ZM708.229 629V617.894H703.909V616.4H714.223V617.894H709.903V629H708.229ZM715.87 629V616.4H717.544V621.926H723.934V616.4H725.608V629H723.934V623.42H717.544V629H715.87ZM735.772 629.27C733.54 629.27 731.776 627.956 731.776 625.868C731.776 624.14 733 623.042 734.638 622.394C733.45 621.026 733.144 620.108 733.144 619.262C733.144 617.534 734.422 616.13 736.708 616.13C738.904 616.13 739.966 617.39 739.966 619.01C739.966 620.288 739.318 621.656 737.158 622.538L737.032 622.592L739.66 625.382C740.128 624.554 740.416 623.546 740.47 622.358H742.144C742.072 623.906 741.568 625.364 740.758 626.516L743.116 629H740.866L739.678 627.74C738.616 628.694 737.266 629.27 735.772 629.27ZM733.468 625.724C733.468 627.02 734.314 627.776 735.808 627.776C736.87 627.776 737.86 627.38 738.652 626.66L735.43 623.24L735.394 623.258C734.188 623.744 733.468 624.536 733.468 625.724ZM734.8 619.262C734.8 619.91 735.124 620.576 736.186 621.71L736.24 621.764L736.402 621.692C737.698 621.17 738.4 620.36 738.4 619.316C738.4 618.308 737.734 617.624 736.618 617.624C735.466 617.624 734.8 618.344 734.8 619.262ZM754.043 629.27C751.235 629.27 749.075 627.452 749.075 624.158V616.4H750.749V624.122C750.749 626.534 752.225 627.776 754.043 627.776C755.861 627.776 757.337 626.534 757.337 624.122V616.4H759.011V624.158C759.011 627.452 756.851 629.27 754.043 629.27ZM766.178 629.27C762.92 629.27 761.192 627.47 761.066 624.644H762.758C762.866 626.642 764.072 627.776 766.214 627.776C768.212 627.776 769.4 626.768 769.4 625.22C769.4 624.266 768.95 623.312 766.862 623.312H765.224C762.524 623.312 761.246 621.89 761.246 619.982C761.246 617.696 763.1 616.13 766.07 616.13C769.256 616.13 770.786 617.948 770.912 620.504H769.22C769.112 618.632 768.086 617.624 766.034 617.624C764.126 617.624 762.938 618.506 762.938 619.946C762.938 620.918 763.478 621.692 765.296 621.692H766.934C770.192 621.692 771.092 623.456 771.092 625.184C771.092 627.686 769.202 629.27 766.178 629.27ZM773.193 629V616.4H777.837C781.365 616.4 783.993 618.668 783.993 622.7C783.993 626.732 781.365 629 777.837 629H773.193ZM774.867 627.506H777.837C780.321 627.506 782.247 625.868 782.247 622.7C782.247 619.496 780.321 617.894 777.837 617.894H774.867V627.506ZM793.679 629.27C791.195 629.27 789.701 627.884 789.593 625.724H791.285C791.357 627.2 792.311 627.866 793.679 627.866C795.065 627.866 795.947 627.182 795.947 626.084C795.947 625.22 795.389 624.662 794.039 624.662H792.977C790.961 624.662 789.773 623.564 789.773 621.926C789.773 620.162 791.159 618.83 793.553 618.83C796.019 618.83 797.351 620.234 797.459 622.304H795.767C795.695 620.99 794.957 620.234 793.553 620.234C792.275 620.234 791.465 620.864 791.465 621.854C791.465 622.736 792.095 623.15 793.103 623.15H794.273C796.505 623.15 797.639 624.428 797.639 626.048C797.639 627.92 796.127 629.27 793.679 629.27ZM803.089 629C801.361 629 800.461 628.136 800.461 626.39V620.54H798.481V619.1H800.461V616.4H802.081V619.1H805.213V620.54H802.081V626.39C802.081 627.236 802.513 627.56 803.269 627.56H805.303V629H803.089ZM806.924 629V619.1H808.508V620.828H808.544C809.012 619.784 809.552 619.1 811.136 619.1H812.09V620.54H810.92C809.264 620.54 808.544 621.53 808.544 623.42V629H806.924ZM819.428 626.948C818.798 628.532 817.502 629.27 815.936 629.27C814.046 629.27 812.552 628.19 812.552 626.138C812.552 623.906 814.352 623.042 816.314 623.042H817.88C818.87 623.042 819.374 622.628 819.374 621.854C819.374 620.774 818.384 620.234 817.142 620.234C815.684 620.234 814.658 620.972 814.55 622.304H812.93C813.074 620.198 814.46 618.83 817.142 618.83C819.878 618.83 820.994 620.252 820.994 622.196V626.93C820.994 627.398 821.156 627.56 821.624 627.56H822.074V629H821.012C820.058 629 819.464 628.424 819.464 627.524V626.948H819.428ZM814.244 626.138C814.244 627.056 814.82 627.866 816.242 627.866C817.88 627.866 819.374 626.786 819.374 624.464V623.348H819.338C818.996 624.068 818.366 624.428 817.16 624.428H816.35C814.802 624.428 814.244 625.238 814.244 626.138ZM826.837 629C825.109 629 824.209 628.136 824.209 626.39V620.54H822.229V619.1H824.209V616.4H825.829V619.1H828.961V620.54H825.829V626.39C825.829 627.236 826.261 627.56 827.017 627.56H829.051V629H826.837ZM834.459 629.27C831.543 629.27 829.599 627.2 829.599 624.05C829.599 620.864 831.579 618.83 834.423 618.83C837.087 618.83 839.121 620.594 839.121 623.528V624.59H831.309C831.435 626.444 832.569 627.866 834.459 627.866C835.827 627.866 836.889 627.128 837.285 625.958H839.031C838.617 627.902 836.817 629.27 834.459 629.27ZM831.345 623.204H837.429C837.429 621.44 836.313 620.234 834.477 620.234C832.569 620.234 831.561 621.53 831.345 623.204ZM843.329 632.6C841.259 632.6 840.233 631.628 840.233 630.278C840.233 629.27 840.809 628.46 841.943 628.154V628.118C841.187 627.866 840.701 627.29 840.701 626.534C840.701 625.652 841.367 625.094 842.177 625.04L842.411 625.022V624.986C841.277 624.518 840.575 623.546 840.575 622.196C840.575 620.054 842.303 618.83 844.481 618.83C845.885 618.83 847.109 619.37 847.793 620.306H847.829C847.901 619.55 848.333 619.1 849.089 619.1H849.467V620.54H848.801C848.369 620.54 848.225 620.72 848.189 621.062C848.315 621.404 848.387 621.782 848.387 622.196C848.387 624.266 846.641 625.58 844.481 625.58H843.149C842.519 625.58 842.123 625.796 842.123 626.318C842.123 626.804 842.465 627.092 843.149 627.092H846.443C848.369 627.092 849.575 628.136 849.575 629.828C849.575 631.538 848.369 632.6 846.443 632.6H843.329ZM841.673 629.882C841.673 630.674 842.177 631.232 843.275 631.232H846.371C847.343 631.232 847.955 630.728 847.955 629.864C847.955 629 847.343 628.496 846.371 628.496H843.275C842.231 628.496 841.673 629.054 841.673 629.882ZM842.177 622.214C842.177 623.618 843.293 624.212 844.481 624.212C845.669 624.212 846.785 623.618 846.785 622.214C846.785 620.828 845.669 620.234 844.481 620.234C843.293 620.234 842.177 620.828 842.177 622.214ZM851.08 629V619.1H852.7V629H851.08ZM851.062 617.246V615.59H852.718V617.246H851.062ZM859.455 629.27C856.539 629.27 854.595 627.2 854.595 624.05C854.595 620.864 856.575 618.83 859.419 618.83C862.083 618.83 864.117 620.594 864.117 623.528V624.59H856.305C856.431 626.444 857.565 627.866 859.455 627.866C860.823 627.866 861.885 627.128 862.281 625.958H864.027C863.613 627.902 861.813 629.27 859.455 629.27ZM856.341 623.204H862.425C862.425 621.44 861.309 620.234 859.473 620.234C857.565 620.234 856.557 621.53 856.341 623.204ZM869.388 629.27C866.904 629.27 865.41 627.884 865.302 625.724H866.994C867.066 627.2 868.02 627.866 869.388 627.866C870.774 627.866 871.656 627.182 871.656 626.084C871.656 625.22 871.098 624.662 869.748 624.662H868.686C866.67 624.662 865.482 623.564 865.482 621.926C865.482 620.162 866.868 618.83 869.262 618.83C871.728 618.83 873.06 620.234 873.168 622.304H871.476C871.404 620.99 870.666 620.234 869.262 620.234C867.984 620.234 867.174 620.864 867.174 621.854C867.174 622.736 867.804 623.15 868.812 623.15H869.982C872.214 623.15 873.348 624.428 873.348 626.048C873.348 627.92 871.836 629.27 869.388 629.27Z" fill="#0D4A2F"/>
<path d="M64.3748 603.81H63.5876C62.6468 607.093 60.0644 609.675 56.7812 610.616V611.403C60.0644 612.344 62.6468 614.926 63.5876 618.21H64.3748C65.3156 614.926 67.898 612.344 71.1812 611.403V610.616C67.898 609.675 65.3156 607.093 64.3748 603.81Z" fill="#062819"/>
<path d="M77.0463 614.139C75.6351 620.043 70.3263 624.44 63.9903 624.44C56.5695 624.44 50.5504 618.421 50.5504 611C50.5504 603.579 56.5695 597.56 63.9903 597.56C70.3263 597.56 75.6255 601.957 77.0463 607.861C80.3967 606.152 83.3727 603.819 85.811 600.997C82.0191 592.741 73.6767 587 63.9999 587C50.7424 587 40 597.742 40 611C40 624.258 50.7424 635 63.9999 635C73.6863 635 82.0191 629.259 85.811 621.003C83.3727 618.181 80.4062 615.838 77.0559 614.13L77.0463 614.139Z" fill="#062819"/>
<path d="M108.573 595.635C116.934 595.635 121.897 601.28 122.406 607.376H115.293C114.841 604.554 112.643 602.182 108.573 602.182C103.6 602.182 100.72 605.792 100.72 610.995C100.72 616.198 103.6 619.808 108.573 619.808C112.643 619.808 114.841 617.437 115.293 614.614H122.406C121.897 620.71 116.982 626.365 108.573 626.365C99.4814 626.365 93.491 619.866 93.491 611.005C93.491 602.144 99.3086 595.645 108.573 595.645V595.635Z" fill="#062819"/>
<path d="M154.027 610.995C154.027 619.462 148.44 626.355 139.118 626.355C129.797 626.355 124.21 619.462 124.21 610.995C124.21 602.528 129.797 595.635 139.118 595.635C148.44 595.635 154.027 602.528 154.027 610.995ZM146.798 610.995C146.798 606.138 144.034 602.182 139.118 602.182C134.203 602.182 131.438 606.138 131.438 610.995C131.438 615.853 134.203 619.808 139.118 619.808C144.034 619.808 146.798 615.853 146.798 610.995Z" fill="#062819"/>
<path d="M160.577 596.097L167.182 617.899C167.518 619.032 167.576 620.097 167.576 621.172C167.576 621.566 167.691 622.017 168.257 622.017C168.824 622.017 168.939 621.566 168.939 621.172C168.939 620.097 168.996 619.022 169.332 617.899L175.937 596.097H183.617L175.131 621C174.132 623.937 171.368 625.915 168.257 625.915C165.147 625.915 162.392 623.937 161.384 621L152.897 596.097H160.577Z" fill="#062819"/>
<path d="M211.226 612.81H189.539C190.048 617.331 192.986 620.038 197.498 620.038C200.944 620.038 202.691 618.176 203.536 615.517H210.88C209.584 621.67 205.399 626.355 197.44 626.355C187.783 626.355 182.474 619.856 182.474 610.995C182.474 601.674 188.234 595.635 197.325 595.635C204.218 595.635 211.389 599.754 211.389 610.602C211.389 611.389 211.331 611.955 211.216 612.8L211.226 612.81ZM204.17 607.837C203.891 604.227 201.741 601.51 197.565 601.51C192.65 601.51 190.567 604.275 189.827 607.837H204.17Z" fill="#062819"/>
<defs>
<linearGradient id="paint0_linear_2324_6706" x1="680" y1="272.065" x2="514.293" y2="112.065" gradientUnits="userSpaceOnUse">
<stop stop-color="white"/>
<stop offset="1" stop-color="#F8FDEA"/>
</linearGradient>
<clipPath id="clip0_2324_6706">
<rect width="160" height="160" fill="white" transform="matrix(-1 0 0 -1 680 272.065)"/>
</clipPath>
<clipPath id="clip1_2324_6706">
<rect width="160" height="160" fill="white" transform="matrix(-1 0 0 -1 680 497.5)"/>
</clipPath>
</defs>
</svg>
