<svg width="1200" height="675" viewBox="0 0 1200 675" fill="none" xmlns="http://www.w3.org/2000/svg">
<rect width="1200" height="675" fill="#FAFDF0"/>
<rect x="40" y="176" width="32" height="32.1304" rx="16" fill="#E9FDA6"/>
<path d="M55.9943 197.816C53.49 197.816 51.7035 196.43 51.6535 193.942H53.2062C53.2562 195.462 54.2747 196.514 56.011 196.514C57.5637 196.514 58.7992 195.679 58.7992 194.193C58.7992 192.757 57.6472 191.972 55.8274 191.972H54.3415V190.67H55.5769C57.2966 190.67 58.2983 189.852 58.2983 188.683C58.2983 187.515 57.2966 186.93 56.1112 186.93C54.7588 186.93 53.7571 187.682 53.707 189.001H52.1543C52.2378 186.98 53.7738 185.628 56.1112 185.628C58.3985 185.628 59.851 186.93 59.851 188.55C59.851 189.718 59.0496 190.854 57.2632 191.121V191.154C59.3335 191.371 60.3519 192.657 60.3519 194.243C60.3519 196.347 58.5822 197.816 55.9943 197.816Z" fill="#0D4A2F"/>
<path d="M84.1 195L80.2 181H82.12L85.16 192.8H85.2L88 181H90.5L93.26 192.8H93.3L96.32 181H98.24L94.34 195H92.14L89.24 183.16H89.2L86.3 195H84.1ZM105.677 192.72C104.977 194.48 103.537 195.3 101.797 195.3C99.6967 195.3 98.0367 194.1 98.0367 191.82C98.0367 189.34 100.037 188.38 102.217 188.38H103.957C105.057 188.38 105.617 187.92 105.617 187.06C105.617 185.86 104.517 185.26 103.137 185.26C101.517 185.26 100.377 186.08 100.257 187.56H98.4567C98.6167 185.22 100.157 183.7 103.137 183.7C106.177 183.7 107.417 185.28 107.417 187.44V192.7C107.417 193.22 107.597 193.4 108.117 193.4H108.617V195H107.437C106.377 195 105.717 194.36 105.717 193.36V192.72H105.677ZM99.9167 191.82C99.9167 192.84 100.557 193.74 102.137 193.74C103.957 193.74 105.617 192.54 105.617 189.96V188.72H105.577C105.197 189.52 104.497 189.92 103.157 189.92H102.257C100.537 189.92 99.9167 190.82 99.9167 191.82ZM113.509 195C111.589 195 110.589 194.04 110.589 192.1V185.6H108.389V184H110.589V181H112.389V184H115.869V185.6H112.389V192.1C112.389 193.04 112.869 193.4 113.709 193.4H115.969V195H113.509ZM121.637 195.3C118.377 195.3 116.177 193.02 116.177 189.5C116.177 185.98 118.217 183.7 121.637 183.7C124.757 183.7 126.477 185.72 126.717 188.2H124.837C124.717 186.62 123.597 185.26 121.637 185.26C119.417 185.26 118.057 187.02 118.057 189.5C118.057 192.12 119.617 193.74 121.637 193.74C123.577 193.74 124.657 192.24 124.837 191.02H126.717C126.417 193.28 124.657 195.3 121.637 195.3ZM128.084 195V179.38H129.884V184.28C129.884 184.78 129.884 185.16 129.844 186.04H129.884C130.404 184.74 131.604 183.7 133.404 183.7C135.744 183.7 137.244 185.42 137.244 188.06V195H135.444V188.58C135.444 186.16 134.404 185.3 132.964 185.3C131.344 185.3 129.884 186.38 129.884 189.04V195H128.084ZM150.3 195.3C146.2 195.3 143.42 192.42 143.42 187.98C143.42 183.54 146 180.7 150.3 180.7C154.28 180.7 156.48 183.26 156.76 186.36H154.84C154.68 184.24 153.1 182.36 150.3 182.36C147.24 182.36 145.36 184.5 145.36 187.98C145.36 191.46 147.52 193.64 150.3 193.64C153.04 193.64 154.6 191.6 154.84 189.9H156.76C156.4 192.78 154.16 195.3 150.3 195.3ZM163.221 195.3C160.181 195.3 157.761 193.2 157.761 189.5C157.761 185.8 160.181 183.7 163.221 183.7C166.261 183.7 168.681 185.8 168.681 189.5C168.681 193.2 166.261 195.3 163.221 195.3ZM159.641 189.5C159.641 192.3 161.221 193.74 163.221 193.74C165.221 193.74 166.801 192.3 166.801 189.5C166.801 186.7 165.221 185.26 163.221 185.26C161.221 185.26 159.641 186.7 159.641 189.5ZM172.939 195L168.699 184H170.679L173.859 192.78H173.879L177.059 184H179.039L174.799 195H172.939ZM184.451 195.3C181.211 195.3 179.051 193 179.051 189.5C179.051 185.96 181.251 183.7 184.411 183.7C187.371 183.7 189.631 185.66 189.631 188.92V190.1H180.951C181.091 192.16 182.351 193.74 184.451 193.74C185.971 193.74 187.151 192.92 187.591 191.62H189.531C189.071 193.78 187.071 195.3 184.451 195.3ZM180.991 188.56H187.751C187.751 186.6 186.511 185.26 184.471 185.26C182.351 185.26 181.231 186.7 180.991 188.56ZM200.096 195.3C196.856 195.3 194.696 193 194.696 189.5C194.696 185.96 196.896 183.7 200.056 183.7C203.016 183.7 205.276 185.66 205.276 188.92V190.1H196.596C196.736 192.16 197.996 193.74 200.096 193.74C201.616 193.74 202.796 192.92 203.236 191.62H205.176C204.716 193.78 202.716 195.3 200.096 195.3ZM196.636 188.56H203.396C203.396 186.6 202.156 185.26 200.116 185.26C197.996 185.26 196.876 186.7 196.636 188.56ZM213.874 192.72C213.174 194.48 211.734 195.3 209.994 195.3C207.894 195.3 206.234 194.1 206.234 191.82C206.234 189.34 208.234 188.38 210.414 188.38H212.154C213.254 188.38 213.814 187.92 213.814 187.06C213.814 185.86 212.714 185.26 211.334 185.26C209.714 185.26 208.574 186.08 208.454 187.56H206.654C206.814 185.22 208.354 183.7 211.334 183.7C214.374 183.7 215.614 185.28 215.614 187.44V192.7C215.614 193.22 215.794 193.4 216.314 193.4H216.814V195H215.634C214.574 195 213.914 194.36 213.914 193.36V192.72H213.874ZM208.114 191.82C208.114 192.84 208.754 193.74 210.334 193.74C212.154 193.74 213.814 192.54 213.814 189.96V188.72H213.774C213.394 189.52 212.694 189.92 211.354 189.92H210.454C208.734 189.92 208.114 190.82 208.114 191.82ZM218.253 195V184H220.013V185.92H220.053C220.573 184.76 221.173 184 222.933 184H223.993V185.6H222.693C220.853 185.6 220.053 186.7 220.053 188.8V195H218.253ZM225.06 195V184H226.82V186.06H226.86C227.52 184.6 228.8 183.7 230.5 183.7C232.82 183.7 234.22 185.36 234.22 188.4V195H232.42V188.58C232.42 186.2 231.38 185.3 229.94 185.3C228.38 185.3 226.86 186.38 226.86 189.04V195H225.06ZM239.796 199V197.4H242.716L243.996 194.4L239.796 184H241.756L244.896 192.3H244.936L248.076 184H250.036L244.336 198.16C244.116 198.72 243.696 199 243.096 199H239.796ZM255.471 195.3C252.431 195.3 250.011 193.2 250.011 189.5C250.011 185.8 252.431 183.7 255.471 183.7C258.511 183.7 260.931 185.8 260.931 189.5C260.931 193.2 258.511 195.3 255.471 195.3ZM251.891 189.5C251.891 192.3 253.471 193.74 255.471 193.74C257.471 193.74 259.051 192.3 259.051 189.5C259.051 186.7 257.471 185.26 255.471 185.26C253.471 185.26 251.891 186.7 251.891 189.5ZM266.34 195.3C263.96 195.3 262.54 193.64 262.54 190.6V184H264.34V190.42C264.34 192.84 265.38 193.7 266.82 193.7C268.44 193.7 269.9 192.62 269.9 189.96V184H271.7V195H269.94V192.94H269.9C269.26 194.5 267.98 195.3 266.34 195.3ZM85.52 220C83.6 220 82.6 219.04 82.6 217.1V210.6H80.4V209H82.6V206H84.4V209H87.88V210.6H84.4V217.1C84.4 218.04 84.88 218.4 85.72 218.4H87.98V220H85.52ZM89.3812 220V204.38H91.1813V209.28C91.1813 209.78 91.1813 210.16 91.1412 211.04H91.1813C91.7013 209.74 92.9013 208.7 94.7013 208.7C97.0413 208.7 98.5413 210.42 98.5413 213.06V220H96.7413V213.58C96.7413 211.16 95.7013 210.3 94.2613 210.3C92.6413 210.3 91.1813 211.38 91.1813 214.04V220H89.3812ZM105.61 220.3C102.37 220.3 100.21 218 100.21 214.5C100.21 210.96 102.41 208.7 105.57 208.7C108.53 208.7 110.79 210.66 110.79 213.92V215.1H102.11C102.25 217.16 103.51 218.74 105.61 218.74C107.13 218.74 108.31 217.92 108.75 216.62H110.69C110.23 218.78 108.23 220.3 105.61 220.3ZM102.15 213.56H108.91C108.91 211.6 107.67 210.26 105.63 210.26C103.51 210.26 102.39 211.7 102.15 213.56ZM122.655 220.3C120.795 220.3 119.235 219.3 118.555 217.66H118.515C118.535 218.08 118.535 218.44 118.535 218.86V220H116.755V204.38H118.555V210.14C118.555 210.56 118.555 210.92 118.515 211.34H118.555C119.235 209.7 120.795 208.7 122.655 208.7C125.255 208.7 127.795 210.7 127.795 214.5C127.795 218.3 125.255 220.3 122.655 220.3ZM118.535 214.5C118.535 217.02 120.035 218.74 122.215 218.74C124.395 218.74 125.915 217.02 125.915 214.5C125.915 211.98 124.395 210.26 122.215 210.26C120.035 210.26 118.535 211.98 118.535 214.5ZM134.332 220.3C131.092 220.3 128.932 218 128.932 214.5C128.932 210.96 131.132 208.7 134.292 208.7C137.252 208.7 139.512 210.66 139.512 213.92V215.1H130.832C130.972 217.16 132.232 218.74 134.332 218.74C135.852 218.74 137.032 217.92 137.472 216.62H139.412C138.952 218.78 136.952 220.3 134.332 220.3ZM130.872 213.56H137.632C137.632 211.6 136.392 210.26 134.352 210.26C132.232 210.26 131.112 211.7 130.872 213.56ZM144.969 220.3C142.209 220.3 140.549 218.76 140.429 216.36H142.309C142.389 218 143.449 218.74 144.969 218.74C146.509 218.74 147.489 217.98 147.489 216.76C147.489 215.8 146.869 215.18 145.369 215.18H144.189C141.949 215.18 140.629 213.96 140.629 212.14C140.629 210.18 142.169 208.7 144.829 208.7C147.569 208.7 149.049 210.26 149.169 212.56H147.289C147.209 211.1 146.389 210.26 144.829 210.26C143.409 210.26 142.509 210.96 142.509 212.06C142.509 213.04 143.209 213.5 144.329 213.5H145.629C148.109 213.5 149.369 214.92 149.369 216.72C149.369 218.8 147.689 220.3 144.969 220.3ZM155.025 220C153.105 220 152.105 219.04 152.105 217.1V210.6H149.905V209H152.105V206H153.905V209H157.385V210.6H153.905V217.1C153.905 218.04 154.385 218.4 155.225 218.4H157.485V220H155.025ZM161.991 224V222.4H164.911L166.191 219.4L161.991 209H163.951L167.091 217.3H167.131L170.271 209H172.231L166.531 223.16C166.311 223.72 165.891 224 165.291 224H161.991ZM173.223 220V209H175.023V220H173.223ZM173.203 206.94V205.1H175.043V206.94H173.203ZM182.127 220.3C178.887 220.3 176.727 218 176.727 214.5C176.727 210.96 178.927 208.7 182.087 208.7C185.047 208.7 187.307 210.66 187.307 213.92V215.1H178.627C178.767 217.16 180.027 218.74 182.127 218.74C183.647 218.74 184.827 217.92 185.267 216.62H187.207C186.747 218.78 184.747 220.3 182.127 220.3ZM178.667 213.56H185.427C185.427 211.6 184.187 210.26 182.147 210.26C180.027 210.26 178.907 211.7 178.667 213.56ZM188.927 220V204.38H190.727V220H188.927ZM197.532 220.3C194.932 220.3 192.392 218.3 192.392 214.5C192.392 210.7 194.932 208.7 197.532 208.7C199.392 208.7 200.952 209.7 201.632 211.34H201.672C201.632 210.92 201.632 210.56 201.632 210.14V204.38H203.432V220H201.652V218.86C201.652 218.44 201.652 218.08 201.672 217.66H201.632C200.952 219.3 199.392 220.3 197.532 220.3ZM194.272 214.5C194.272 217.02 195.792 218.74 197.972 218.74C200.152 218.74 201.652 217.02 201.652 214.5C201.652 211.98 200.152 210.26 197.972 210.26C195.792 210.26 194.272 211.98 194.272 214.5ZM88.44 242.72C87.74 244.48 86.3 245.3 84.56 245.3C82.46 245.3 80.8 244.1 80.8 241.82C80.8 239.34 82.8 238.38 84.98 238.38H86.72C87.82 238.38 88.38 237.92 88.38 237.06C88.38 235.86 87.28 235.26 85.9 235.26C84.28 235.26 83.14 236.08 83.02 237.56H81.22C81.38 235.22 82.92 233.7 85.9 233.7C88.94 233.7 90.18 235.28 90.18 237.44V242.7C90.18 243.22 90.36 243.4 90.88 243.4H91.38V245H90.2C89.14 245 88.48 244.36 88.48 243.36V242.72H88.44ZM82.68 241.82C82.68 242.84 83.32 243.74 84.9 243.74C86.72 243.74 88.38 242.54 88.38 239.96V238.72H88.34C87.96 239.52 87.26 239.92 85.92 239.92H85.02C83.3 239.92 82.68 240.82 82.68 241.82ZM96.343 245.3C93.963 245.3 92.543 243.64 92.543 240.6V234H94.343V240.42C94.343 242.84 95.383 243.7 96.823 243.7C98.443 243.7 99.903 242.62 99.903 239.96V234H101.703V245H99.943V242.94H99.903C99.263 244.5 97.983 245.3 96.343 245.3ZM107.865 245C105.945 245 104.945 244.04 104.945 242.1V235.6H102.745V234H104.945V231H106.745V234H110.225V235.6H106.745V242.1C106.745 243.04 107.225 243.4 108.065 243.4H110.325V245H107.865ZM115.934 245.3C112.894 245.3 110.474 243.2 110.474 239.5C110.474 235.8 112.894 233.7 115.934 233.7C118.974 233.7 121.394 235.8 121.394 239.5C121.394 243.2 118.974 245.3 115.934 245.3ZM112.354 239.5C112.354 242.3 113.934 243.74 115.934 243.74C117.934 243.74 119.514 242.3 119.514 239.5C119.514 236.7 117.934 235.26 115.934 235.26C113.934 235.26 112.354 236.7 112.354 239.5ZM123.064 245V234H124.824V235.94H124.864C125.384 234.84 126.444 233.7 128.224 233.7C129.864 233.7 131.044 234.66 131.504 236.24H131.544C132.104 234.76 133.264 233.7 135.044 233.7C137.284 233.7 138.624 235.4 138.624 238.04V245H136.824V238.22C136.824 236.18 135.884 235.3 134.564 235.3C133.044 235.3 131.744 236.48 131.744 238.76V245H129.944V238.22C129.944 236.18 129.004 235.3 127.684 235.3C126.164 235.3 124.864 236.5 124.864 238.78V245H123.064ZM147.866 242.72C147.166 244.48 145.726 245.3 143.986 245.3C141.886 245.3 140.226 244.1 140.226 241.82C140.226 239.34 142.226 238.38 144.406 238.38H146.146C147.246 238.38 147.806 237.92 147.806 237.06C147.806 235.86 146.706 235.26 145.326 235.26C143.706 235.26 142.566 236.08 142.446 237.56H140.646C140.806 235.22 142.346 233.7 145.326 233.7C148.366 233.7 149.606 235.28 149.606 237.44V242.7C149.606 243.22 149.786 243.4 150.306 243.4H150.806V245H149.626C148.566 245 147.906 244.36 147.906 243.36V242.72H147.866ZM142.106 241.82C142.106 242.84 142.746 243.74 144.326 243.74C146.146 243.74 147.806 242.54 147.806 239.96V238.72H147.766C147.386 239.52 146.686 239.92 145.346 239.92H144.446C142.726 239.92 142.106 240.82 142.106 241.82ZM155.698 245C153.778 245 152.778 244.04 152.778 242.1V235.6H150.578V234H152.778V231H154.578V234H158.058V235.6H154.578V242.1C154.578 243.04 155.058 243.4 155.898 243.4H158.158V245H155.698ZM159.559 245V234H161.359V245H159.559ZM159.539 231.94V230.1H161.379V231.94H159.539ZM168.524 245.3C165.264 245.3 163.064 243.02 163.064 239.5C163.064 235.98 165.104 233.7 168.524 233.7C171.644 233.7 173.364 235.72 173.604 238.2H171.724C171.604 236.62 170.484 235.26 168.524 235.26C166.304 235.26 164.944 237.02 164.944 239.5C164.944 242.12 166.504 243.74 168.524 243.74C170.464 243.74 171.544 242.24 171.724 241.02H173.604C173.304 243.28 171.544 245.3 168.524 245.3ZM182.242 242.72C181.542 244.48 180.102 245.3 178.362 245.3C176.262 245.3 174.602 244.1 174.602 241.82C174.602 239.34 176.602 238.38 178.782 238.38H180.522C181.622 238.38 182.182 237.92 182.182 237.06C182.182 235.86 181.082 235.26 179.702 235.26C178.082 235.26 176.942 236.08 176.822 237.56H175.022C175.182 235.22 176.722 233.7 179.702 233.7C182.742 233.7 183.982 235.28 183.982 237.44V242.7C183.982 243.22 184.162 243.4 184.682 243.4H185.182V245H184.002C182.942 245 182.282 244.36 182.282 243.36V242.72H182.242ZM176.482 241.82C176.482 242.84 177.122 243.74 178.702 243.74C180.522 243.74 182.182 242.54 182.182 239.96V238.72H182.142C181.762 239.52 181.062 239.92 179.722 239.92H178.822C177.102 239.92 176.482 240.82 176.482 241.82ZM186.621 245V229.38H188.421V245H186.621ZM191.026 245V229.38H192.826V245H191.026ZM193.818 249V247.4H196.738L198.018 244.4L193.818 234H195.778L198.918 242.3H198.958L202.098 234H204.058L198.358 248.16C198.138 248.72 197.718 249 197.118 249H193.818Z" fill="#0D4A2F"/>
<path d="M80 248.8H204.258V250.4H80V248.8Z" fill="#0D4A2F"/>
<path opacity="0.7" d="M41.078 54V44.2H42.38V48.498H47.35V44.2H48.652V54H47.35V49.66H42.38V54H41.078ZM55.0824 54.21C52.5204 54.21 50.2944 52.376 50.2944 49.1C50.2944 45.824 52.5204 43.99 55.0824 43.99C57.6444 43.99 59.8704 45.824 59.8704 49.1C59.8704 52.376 57.6444 54.21 55.0824 54.21ZM51.6524 49.1C51.6524 51.732 53.1924 53.048 55.0824 53.048C56.9724 53.048 58.5124 51.732 58.5124 49.1C58.5124 46.468 56.9724 45.152 55.0824 45.152C53.1924 45.152 51.6524 46.468 51.6524 49.1ZM63.2411 54L60.5111 44.2H61.8551L63.9831 52.46H64.0111L65.9711 44.2H67.7211L69.6531 52.46H69.6811L71.7951 44.2H73.1391L70.4091 54H68.8691L66.8391 45.712H66.8111L64.7811 54H63.2411ZM77.6503 54V44.2H78.9523V54H77.6503ZM83.6013 54V45.362H80.2413V44.2H88.2632V45.362H84.9033V54H83.6013ZM94.6317 54L91.9017 44.2H93.2457L95.3737 52.46H95.4017L97.3617 44.2H99.1117L101.044 52.46H101.072L103.186 44.2H104.53L101.8 54H100.26L98.2297 45.712H98.2017L96.1717 54H94.6317ZM109.961 54.21C107.399 54.21 105.173 52.376 105.173 49.1C105.173 45.824 107.399 43.99 109.961 43.99C112.523 43.99 114.749 45.824 114.749 49.1C114.749 52.376 112.523 54.21 109.961 54.21ZM106.531 49.1C106.531 51.732 108.071 53.048 109.961 53.048C111.851 53.048 113.391 51.732 113.391 49.1C113.391 46.468 111.851 45.152 109.961 45.152C108.071 45.152 106.531 46.468 106.531 49.1ZM116.383 54V44.2H120.149C122.389 44.2 123.663 45.292 123.663 46.888C123.663 48.148 122.865 49.072 121.451 49.352V49.38C122.627 49.842 123.061 50.738 123.397 51.97L123.957 54H122.613L122.151 52.292C121.647 50.416 121.129 49.954 119.435 49.954H117.685V54H116.383ZM117.685 48.806H119.505C121.325 48.806 122.305 48.176 122.305 47C122.305 45.964 121.535 45.362 120.135 45.362H117.685V48.806ZM125.379 54V44.2H126.681V49.296H126.709L131.161 44.2H132.897L129.033 48.554L133.135 54H131.483L128.193 49.534H128.165L126.681 51.2V54H125.379ZM137.641 54.21C135.107 54.21 133.763 52.81 133.665 50.612H134.981C135.065 52.166 136.003 53.048 137.669 53.048C139.223 53.048 140.147 52.264 140.147 51.06C140.147 50.318 139.797 49.576 138.173 49.576H136.899C134.799 49.576 133.805 48.47 133.805 46.986C133.805 45.208 135.247 43.99 137.557 43.99C140.035 43.99 141.225 45.404 141.323 47.392H140.007C139.923 45.936 139.125 45.152 137.529 45.152C136.045 45.152 135.121 45.838 135.121 46.958C135.121 47.714 135.541 48.316 136.955 48.316H138.229C140.763 48.316 141.463 49.688 141.463 51.032C141.463 52.978 139.993 54.21 137.641 54.21Z" fill="#0D4A2F"/>
<mask id="path-5-inside-1_2324_7480" fill="white">
<path d="M594.703 268.985L594.703 278.201L437.799 278.201L437.799 268.985L594.703 268.985Z"/>
</mask>
<path d="M594.703 268.985L594.703 278.201L437.799 278.201L437.799 268.985L594.703 268.985Z" fill="white" fill-opacity="0.4"/>
<path d="M594.703 268.985L594.703 278.201L437.799 278.201L437.799 268.985L594.703 268.985Z" fill="#F7F9FA" fill-opacity="0.5"/>
<path d="M594.703 268.985L594.703 278.201L437.799 278.201L437.799 268.985L594.703 268.985Z" fill="#FAFBF8"/>
<path d="M594.703 276.648L437.799 276.648L437.799 279.754L594.703 279.754L594.703 276.648ZM437.799 270.539L594.703 270.539L594.703 267.432L437.799 267.432L437.799 270.539Z" fill="#ECECEC" mask="url(#path-5-inside-1_2324_7480)"/>
<mask id="path-7-inside-2_2324_7480" fill="white">
<path d="M760.816 268.985L760.816 278.201L603.918 278.201L603.918 268.985L760.816 268.985Z"/>
</mask>
<path d="M760.816 268.985L760.816 278.201L603.918 278.201L603.918 268.985L760.816 268.985Z" fill="white" fill-opacity="0.4"/>
<path d="M760.816 268.985L760.816 278.201L603.918 278.201L603.918 268.985L760.816 268.985Z" fill="#F7F9FA" fill-opacity="0.5"/>
<path d="M760.816 268.985L760.816 278.201L603.918 278.201L603.918 268.985L760.816 268.985Z" fill="#FAFBF8"/>
<path d="M760.816 276.648L603.918 276.648L603.918 279.754L760.816 279.754L760.816 276.648ZM603.918 270.539L760.816 270.539L760.816 267.432L603.918 267.432L603.918 270.539Z" fill="#ECECEC" mask="url(#path-7-inside-2_2324_7480)"/>
<path opacity="0.8" d="M860.107 264.986L857.683 256.287H858.876L860.765 263.619H860.79L862.53 256.287H864.083L865.798 263.619H865.823L867.7 256.287H868.893L866.469 264.986H865.102L863.3 257.629H863.275L861.474 264.986H860.107ZM872.416 265.173C870.403 265.173 869.06 263.744 869.06 261.569C869.06 259.369 870.427 257.965 872.391 257.965C874.23 257.965 875.634 259.183 875.634 261.208V261.942H870.241C870.328 263.222 871.111 264.203 872.416 264.203C873.36 264.203 874.093 263.694 874.367 262.886H875.572C875.286 264.228 874.044 265.173 872.416 265.173ZM870.266 260.985H874.466C874.466 259.767 873.696 258.934 872.428 258.934C871.111 258.934 870.415 259.829 870.266 260.985ZM879.916 265.173C877.902 265.173 876.56 263.744 876.56 261.569C876.56 259.369 877.927 257.965 879.891 257.965C881.73 257.965 883.134 259.183 883.134 261.208V261.942H877.741C877.828 263.222 878.611 264.203 879.916 264.203C880.86 264.203 881.593 263.694 881.867 262.886H883.072C882.786 264.228 881.544 265.173 879.916 265.173ZM877.766 260.985H881.966C881.966 259.767 881.196 258.934 879.928 258.934C878.611 258.934 877.915 259.829 877.766 260.985ZM884.389 264.986V255.281H885.507V261.469H885.532L888.341 258.151H889.832L887.235 261.159L890.031 264.986H888.627L886.514 262.004H886.489L885.507 263.147V264.986H884.389ZM890.894 264.986V255.281H892.012V264.986H890.894ZM892.877 267.472V266.478H894.692L895.487 264.614L892.877 258.151H894.095L896.046 263.309H896.071L898.022 258.151H899.24L895.698 266.95C895.561 267.298 895.3 267.472 894.928 267.472H892.877ZM869.001 280.986L872.27 272.287H873.45L876.719 280.986H875.501L874.681 278.662H871.039L870.219 280.986H869.001ZM871.412 277.643H874.308L873.711 275.953C873.425 275.158 873.152 274.363 872.866 273.567H872.854C872.568 274.363 872.295 275.158 872.009 275.953L871.412 277.643ZM877.866 280.986V272.287H881.582C883.322 272.287 884.577 273.269 884.577 274.922C884.577 276.575 883.322 277.507 881.582 277.507H879.022V280.986H877.866ZM879.022 276.475H881.445C882.638 276.475 883.372 275.891 883.372 274.922C883.372 273.953 882.638 273.319 881.445 273.319H879.022V276.475ZM885.997 280.986V272.287H887.153V280.986H885.997Z" fill="#0D4A2F" fill-opacity="0.5"/>
<path opacity="0.8" d="M877.433 315.089V324.875H875.923V317.563H875.896C875.742 318.262 875.238 318.57 874.483 318.57H873.701V317.186H874.511C875.518 317.186 875.937 316.696 875.937 315.746V315.089H877.433Z" fill="#0D4A2F"/>
<path opacity="0.8" d="M869.309 419.944C869.309 418.336 869.882 417.371 872.161 416.211L872.748 415.903C874.076 415.232 874.566 414.617 874.566 413.722C874.566 412.66 873.909 412.059 872.902 412.059C871.853 412.059 871.154 412.702 871.154 414.002H869.561C869.561 411.975 870.917 410.815 872.902 410.815C874.859 410.815 876.173 411.905 876.173 413.694C876.173 415.023 875.446 416.085 873.335 417.162L872.678 417.511C871.126 418.308 870.903 418.783 870.903 419.496H876.313V420.811H869.309V419.944Z" fill="#0D4A2F"/>
<path opacity="0.8" d="M872.813 517.136C870.632 517.136 869.122 515.989 869.094 513.878H870.674C870.702 515.081 871.484 515.892 872.827 515.892C874.029 515.892 874.952 515.234 874.952 514.074C874.952 512.942 874.085 512.327 872.673 512.327H871.429V511.096H872.463C873.791 511.096 874.56 510.467 874.56 509.53C874.56 508.608 873.805 508.146 872.882 508.146C871.862 508.146 871.093 508.72 871.065 509.74H869.485C869.541 508.007 870.855 506.902 872.896 506.902C874.91 506.902 876.14 507.979 876.14 509.377C876.14 510.383 875.469 511.334 873.987 511.544V511.572C875.665 511.753 876.531 512.816 876.531 514.158C876.531 515.919 875.063 517.136 872.813 517.136Z" fill="#0D4A2F"/>
<path opacity="0.8" d="M873.826 611.05V609.009H869.129V607.834L873.435 601.263H875.336V607.736H876.594V609.009H875.336V611.05H873.826ZM870.708 607.736H873.826V602.843H873.798L870.708 607.708V607.736Z" fill="#0D4A2F"/>
<rect x="-0.776693" y="0.776693" width="120.357" height="51.0547" rx="16.3106" transform="matrix(1 0 0 -1 374.5 346.995)" fill="#F7F9FA" fill-opacity="0.5" stroke="#ECECEC" stroke-width="1.55339"/>
<path d="M414.924 321.554V319.97H419.003V315.713H420.587V319.97H424.666V321.554H420.587V325.851H419.003V321.554H414.924ZM432.411 326.603V323.692H425.698V322.247L431.995 312.743H434.193V322.108H435.975V323.692H434.193V326.603H432.411ZM427.659 322.108H432.411V314.723H432.371L427.659 322.069V322.108ZM438.647 326.603L448.31 312.743H450.033L440.37 326.603H438.647ZM436.469 316.01C436.469 313.733 437.935 312.465 439.776 312.465C441.637 312.465 443.103 313.733 443.103 316.01C443.103 318.247 441.637 319.534 439.776 319.534C437.935 319.534 436.469 318.247 436.469 316.01ZM437.954 316.01C437.954 317.475 438.766 318.227 439.776 318.227C440.786 318.227 441.598 317.475 441.598 316.01C441.598 314.545 440.786 313.772 439.776 313.772C438.766 313.772 437.954 314.545 437.954 316.01ZM445.578 323.356C445.578 321.079 447.043 319.811 448.884 319.811C450.746 319.811 452.211 321.079 452.211 323.356C452.211 325.593 450.746 326.88 448.884 326.88C447.043 326.88 445.578 325.593 445.578 323.356ZM447.063 323.356C447.063 324.821 447.874 325.573 448.884 325.573C449.934 325.573 450.706 324.9 450.706 323.356C450.706 321.891 449.894 321.118 448.884 321.118C447.874 321.118 447.063 321.891 447.063 323.356Z" fill="#476C8D"/>
<rect x="-0.776693" y="0.776693" width="120.357" height="51.0547" rx="16.3106" transform="matrix(1 0 0 -1 374.445 536.507)" fill="#F7F9FA" fill-opacity="0.5" stroke="#ECECEC" stroke-width="1.55339"/>
<path d="M409.639 511.066V509.482H413.718V505.224H415.302V509.482H419.381V511.066H415.302V515.362H413.718V511.066H409.639ZM425.781 516.412C423.069 516.412 421.069 514.729 420.792 512.234H422.574C422.752 513.778 424.079 514.867 425.781 514.867C427.682 514.867 429.049 513.521 429.049 511.62C429.049 509.699 427.623 508.472 425.762 508.472C424.316 508.472 423.247 509.145 422.633 510.076H420.871L422 502.254H430.078V503.838H423.564L422.673 508.749H422.712C423.485 507.64 424.732 506.927 426.296 506.927C428.791 506.927 430.91 508.749 430.91 511.58C430.91 514.491 428.672 516.412 425.781 516.412ZM432.269 516.115V514.135H434.15V516.115H432.269ZM438.528 502.254V516.115H436.746V505.521H436.706C436.528 506.531 435.815 506.987 434.746 506.987H433.597V505.224H434.746C436.171 505.224 436.765 504.531 436.765 503.185V502.254H438.528ZM442.953 516.115L452.616 502.254H454.338L444.676 516.115H442.953ZM440.775 505.521C440.775 503.244 442.24 501.977 444.082 501.977C445.943 501.977 447.408 503.244 447.408 505.521C447.408 507.759 445.943 509.046 444.082 509.046C442.24 509.046 440.775 507.759 440.775 505.521ZM442.26 505.521C442.26 506.987 443.072 507.739 444.082 507.739C445.092 507.739 445.903 506.987 445.903 505.521C445.903 504.056 445.092 503.284 444.082 503.284C443.072 503.284 442.26 504.056 442.26 505.521ZM449.883 512.867C449.883 510.59 451.349 509.323 453.19 509.323C455.051 509.323 456.516 510.59 456.516 512.867C456.516 515.105 455.051 516.392 453.19 516.392C451.349 516.392 449.883 515.105 449.883 512.867ZM451.368 512.867C451.368 514.333 452.18 515.085 453.19 515.085C454.239 515.085 455.012 514.412 455.012 512.867C455.012 511.402 454.2 510.63 453.19 510.63C452.18 510.63 451.368 511.402 451.368 512.867Z" fill="#476C8D"/>
<rect x="-0.776693" y="0.776693" width="120.357" height="51.0547" rx="16.3106" transform="matrix(1 0 0 -1 374.445 633.179)" fill="#F7F9FA" fill-opacity="0.5" stroke="#ECECEC" stroke-width="1.55339"/>
<path d="M406.154 607.737V606.153H410.233V601.896H411.817V606.153H415.896V607.737H411.817V612.034H410.233V607.737H406.154ZM423.64 612.787V609.876H416.928V608.431L423.225 598.926H425.423V608.292H427.205V609.876H425.423V612.787H423.64ZM418.888 608.292H423.64V600.906H423.601L418.888 608.252V608.292ZM428.378 612.787V610.807H430.259V612.787H428.378ZM436.663 598.629C440.01 598.629 442.188 601.085 442.188 605.797C442.188 610.628 440.049 613.084 436.703 613.084C433.871 613.084 431.951 611.104 431.951 608.728H433.733C433.733 610.371 434.98 611.539 436.703 611.539C438.663 611.539 440.326 609.757 440.326 605.856V605.401H440.287C439.673 607.064 438.208 608.114 436.327 608.114C433.832 608.114 431.614 606.272 431.614 603.401C431.614 600.471 433.772 598.629 436.663 598.629ZM433.475 603.421C433.475 605.342 434.901 606.569 436.723 606.569C438.544 606.569 439.97 605.342 439.97 603.421C439.97 601.481 438.544 600.174 436.743 600.174C434.941 600.174 433.475 601.481 433.475 603.421ZM446.216 612.787L455.879 598.926H457.602L447.939 612.787H446.216ZM444.038 602.193C444.038 599.916 445.504 598.649 447.345 598.649C449.206 598.649 450.672 599.916 450.672 602.193C450.672 604.431 449.206 605.718 447.345 605.718C445.504 605.718 444.038 604.431 444.038 602.193ZM445.523 602.193C445.523 603.659 446.335 604.411 447.345 604.411C448.355 604.411 449.167 603.659 449.167 602.193C449.167 600.728 448.355 599.956 447.345 599.956C446.335 599.956 445.523 600.728 445.523 602.193ZM453.147 609.539C453.147 607.262 454.612 605.995 456.453 605.995C458.315 605.995 459.78 607.262 459.78 609.539C459.78 611.777 458.315 613.064 456.453 613.064C454.612 613.064 453.147 611.777 453.147 609.539ZM454.632 609.539C454.632 611.005 455.444 611.757 456.453 611.757C457.503 611.757 458.275 611.084 458.275 609.539C458.275 608.074 457.463 607.302 456.453 607.302C455.444 607.302 454.632 608.074 454.632 609.539Z" fill="#476C8D"/>
<rect x="-0.776693" y="0.776693" width="120.357" height="51.0547" rx="16.3106" transform="matrix(1 0 0 -1 539.879 443.305)" fill="#F7F9FA" fill-opacity="0.5" stroke="#ECECEC" stroke-width="1.55339"/>
<path d="M575.068 417.863V416.279H579.147V412.022H580.731V416.279H584.81V417.863H580.731V422.16H579.147V417.863H575.068ZM591.211 423.21C588.498 423.21 586.498 421.527 586.221 419.032H588.003C588.181 420.576 589.508 421.665 591.211 421.665C593.111 421.665 594.478 420.319 594.478 418.418C594.478 416.497 593.052 415.27 591.191 415.27C589.745 415.27 588.676 415.943 588.062 416.873H586.3L587.429 409.052H595.507V410.636H588.993L588.102 415.547H588.142C588.914 414.438 590.161 413.725 591.725 413.725C594.22 413.725 596.339 415.547 596.339 418.378C596.339 421.289 594.102 423.21 591.211 423.21ZM597.699 422.913V420.933H599.58V422.913H597.699ZM603.957 409.052V422.913H602.175V412.319H602.135C601.957 413.329 601.244 413.785 600.175 413.785H599.027V412.022H600.175C601.601 412.022 602.195 411.329 602.195 409.983V409.052H603.957ZM608.382 422.913L618.045 409.052H619.768L610.105 422.913H608.382ZM606.204 412.319C606.204 410.042 607.67 408.775 609.511 408.775C611.372 408.775 612.837 410.042 612.837 412.319C612.837 414.557 611.372 415.844 609.511 415.844C607.67 415.844 606.204 414.557 606.204 412.319ZM607.689 412.319C607.689 413.785 608.501 414.537 609.511 414.537C610.521 414.537 611.333 413.785 611.333 412.319C611.333 410.854 610.521 410.082 609.511 410.082C608.501 410.082 607.689 410.854 607.689 412.319ZM615.313 419.665C615.313 417.388 616.778 416.121 618.619 416.121C620.48 416.121 621.946 417.388 621.946 419.665C621.946 421.903 620.48 423.19 618.619 423.19C616.778 423.19 615.313 421.903 615.313 419.665ZM616.798 419.665C616.798 421.131 617.609 421.883 618.619 421.883C619.669 421.883 620.441 421.21 620.441 419.665C620.441 418.2 619.629 417.428 618.619 417.428C617.609 417.428 616.798 418.2 616.798 419.665Z" fill="#476C8D"/>
<rect x="-0.776693" y="0.776693" width="120.357" height="51.0547" rx="16.3106" transform="matrix(1 0 0 -1 539.879 536.507)" fill="#F7F9FA" fill-opacity="0.5" stroke="#ECECEC" stroke-width="1.55339"/>
<path d="M579.648 511.066V509.482H583.727V505.224H585.311V509.482H589.39V511.066H585.311V515.362H583.727V511.066H579.648ZM595.791 516.412C593.078 516.412 591.078 514.729 590.801 512.234H592.583C592.761 513.778 594.088 514.867 595.791 514.867C597.692 514.867 599.058 513.521 599.058 511.62C599.058 509.699 597.632 508.472 595.771 508.472C594.326 508.472 593.256 509.145 592.643 510.076H590.88L592.009 502.254H600.088V503.838H593.573L592.682 508.749H592.722C593.494 507.64 594.741 506.927 596.306 506.927C598.801 506.927 600.919 508.749 600.919 511.58C600.919 514.491 598.682 516.412 595.791 516.412ZM604.126 516.115L613.788 502.254H615.511L605.848 516.115H604.126ZM601.948 505.521C601.948 503.244 603.413 501.977 605.254 501.977C607.116 501.977 608.581 503.244 608.581 505.521C608.581 507.759 607.116 509.046 605.254 509.046C603.413 509.046 601.948 507.759 601.948 505.521ZM603.433 505.521C603.433 506.987 604.245 507.739 605.254 507.739C606.264 507.739 607.076 506.987 607.076 505.521C607.076 504.056 606.264 503.284 605.254 503.284C604.245 503.284 603.433 504.056 603.433 505.521ZM611.056 512.867C611.056 510.59 612.521 509.323 614.363 509.323C616.224 509.323 617.689 510.59 617.689 512.867C617.689 515.105 616.224 516.392 614.363 516.392C612.521 516.392 611.056 515.105 611.056 512.867ZM612.541 512.867C612.541 514.333 613.353 515.085 614.363 515.085C615.412 515.085 616.184 514.412 616.184 512.867C616.184 511.402 615.373 510.63 614.363 510.63C613.353 510.63 612.541 511.402 612.541 512.867Z" fill="#476C8D"/>
<rect x="-0.776693" y="0.776693" width="120.357" height="51.0547" rx="16.3106" transform="matrix(1 0 0 -1 705.312 346.995)" fill="#F7F9FA" fill-opacity="0.5" stroke="#ECECEC" stroke-width="1.55339"/>
<path d="M745.736 321.554V319.97H749.815V315.713H751.399V319.97H755.478V321.554H751.399V325.851H749.815V321.554H745.736ZM763.223 326.603V323.692H756.511V322.247L762.807 312.743H765.005V322.108H766.787V323.692H765.005V326.603H763.223ZM758.471 322.108H763.223V314.723H763.184L758.471 322.069V322.108ZM769.46 326.603L779.123 312.743H780.845L771.183 326.603H769.46ZM767.282 316.01C767.282 313.733 768.747 312.465 770.589 312.465C772.45 312.465 773.915 313.733 773.915 316.01C773.915 318.247 772.45 319.534 770.589 319.534C768.747 319.534 767.282 318.247 767.282 316.01ZM768.767 316.01C768.767 317.475 769.579 318.227 770.589 318.227C771.598 318.227 772.41 317.475 772.41 316.01C772.41 314.545 771.598 313.772 770.589 313.772C769.579 313.772 768.767 314.545 768.767 316.01ZM776.39 323.356C776.39 321.079 777.855 319.811 779.697 319.811C781.558 319.811 783.023 321.079 783.023 323.356C783.023 325.593 781.558 326.88 779.697 326.88C777.855 326.88 776.39 325.593 776.39 323.356ZM777.875 323.356C777.875 324.821 778.687 325.573 779.697 325.573C780.746 325.573 781.518 324.9 781.518 323.356C781.518 321.891 780.707 321.118 779.697 321.118C778.687 321.118 777.875 321.891 777.875 323.356Z" fill="#476C8D"/>
<rect x="-0.776693" y="0.776693" width="120.357" height="51.0547" rx="16.3106" transform="matrix(1 0 0 -1 705.312 443.305)" fill="#F7F9FA" fill-opacity="0.5" stroke="#ECECEC" stroke-width="1.55339"/>
<path d="M737.311 417.863V416.279H741.39V412.022H742.974V416.279H747.053V417.863H742.974V422.16H741.39V417.863H737.311ZM754.798 422.913V420.002H748.085V418.556L754.382 409.052H756.58V418.418H758.362V420.002H756.58V422.913H754.798ZM750.046 418.418H754.798V411.032H754.758L750.046 418.378V418.418ZM759.535 422.913V420.933H761.417V422.913H759.535ZM763.116 421.863C763.116 419.665 763.888 418.24 767.215 416.537L767.947 416.161C770.006 415.111 770.739 414.2 770.739 412.874C770.739 411.25 769.709 410.3 768.125 410.3C766.482 410.3 765.373 411.309 765.373 413.27H763.532C763.532 410.418 765.432 408.755 768.125 408.755C770.779 408.755 772.64 410.339 772.64 412.814C772.64 414.557 771.749 416.161 768.64 417.745L767.868 418.141C765.373 419.428 765.036 420.18 765.036 421.269H772.838V422.913H763.116V421.863ZM776.794 422.913L786.456 409.052H788.179L778.516 422.913H776.794ZM774.616 412.319C774.616 410.042 776.081 408.775 777.922 408.775C779.784 408.775 781.249 410.042 781.249 412.319C781.249 414.557 779.784 415.844 777.922 415.844C776.081 415.844 774.616 414.557 774.616 412.319ZM776.101 412.319C776.101 413.785 776.912 414.537 777.922 414.537C778.932 414.537 779.744 413.785 779.744 412.319C779.744 410.854 778.932 410.082 777.922 410.082C776.912 410.082 776.101 410.854 776.101 412.319ZM783.724 419.665C783.724 417.388 785.189 416.121 787.031 416.121C788.892 416.121 790.357 417.388 790.357 419.665C790.357 421.903 788.892 423.19 787.031 423.19C785.189 423.19 783.724 421.903 783.724 419.665ZM785.209 419.665C785.209 421.131 786.021 421.883 787.031 421.883C788.08 421.883 788.852 421.21 788.852 419.665C788.852 418.2 788.04 417.428 787.031 417.428C786.021 417.428 785.209 418.2 785.209 419.665Z" fill="#476C8D"/>
<rect x="-0.776693" y="0.776693" width="120.357" height="51.0547" rx="16.3106" transform="matrix(1 0 0 -1 705.312 633.179)" fill="#F7F9FA" fill-opacity="0.5" stroke="#ECECEC" stroke-width="1.55339"/>
<path d="M737.966 607.737V606.153H742.045V601.896H743.629V606.153H747.708V607.737H743.629V612.034H742.045V607.737H737.966ZM754.109 613.084C751.396 613.084 749.396 611.401 749.119 608.906H750.901C751.079 610.45 752.406 611.539 754.109 611.539C756.009 611.539 757.376 610.193 757.376 608.292C757.376 606.371 755.95 605.144 754.089 605.144C752.643 605.144 751.574 605.817 750.96 606.747H749.198L750.327 598.926H758.405V600.51H751.891L751 605.421H751.039C751.812 604.312 753.059 603.599 754.623 603.599C757.118 603.599 759.237 605.421 759.237 608.252C759.237 611.163 756.999 613.084 754.109 613.084ZM760.596 612.787V610.807H762.477V612.787H760.596ZM770.458 612.787V609.876H763.745V608.431L770.042 598.926H772.24V608.292H774.022V609.876H772.24V612.787H770.458ZM765.706 608.292H770.458V600.906H770.418L765.706 608.252V608.292ZM776.694 612.787L786.357 598.926H788.08L778.417 612.787H776.694ZM774.516 602.193C774.516 599.916 775.982 598.649 777.823 598.649C779.684 598.649 781.15 599.916 781.15 602.193C781.15 604.431 779.684 605.718 777.823 605.718C775.982 605.718 774.516 604.431 774.516 602.193ZM776.001 602.193C776.001 603.659 776.813 604.411 777.823 604.411C778.833 604.411 779.645 603.659 779.645 602.193C779.645 600.728 778.833 599.956 777.823 599.956C776.813 599.956 776.001 600.728 776.001 602.193ZM783.625 609.539C783.625 607.262 785.09 605.995 786.931 605.995C788.793 605.995 790.258 607.262 790.258 609.539C790.258 611.777 788.793 613.064 786.931 613.064C785.09 613.064 783.625 611.777 783.625 609.539ZM785.11 609.539C785.11 611.005 785.921 611.757 786.931 611.757C787.981 611.757 788.753 611.084 788.753 609.539C788.753 608.074 787.941 607.302 786.931 607.302C785.921 607.302 785.11 608.074 785.11 609.539Z" fill="#476C8D"/>
<rect width="130.349" height="59.0598" rx="25.6309" transform="matrix(1 0 0 -1 368.672 446.532)" fill="#F8FDE5"/>
<g filter="url(#filter0_d_2324_7480)">
<rect width="118.803" height="49.5013" rx="19.8005" transform="matrix(1 0 0 -1 374.473 441.87)" fill="#F6FFD9"/>
<rect x="-1.16504" y="1.16504" width="121.133" height="51.8314" rx="20.9656" transform="matrix(1 0 0 -1 374.473 444.2)" stroke="#D6FF4A" stroke-width="2.33008"/>
</g>
<path d="M408.135 418.148V416.564H412.214V412.306H413.798V416.564H417.877V418.148H413.798V422.444H412.214V418.148H408.135ZM424.278 423.494C421.565 423.494 419.566 421.811 419.288 419.316H421.07C421.249 420.86 422.575 421.949 424.278 421.949C426.179 421.949 427.545 420.603 427.545 418.702C427.545 416.781 426.12 415.554 424.258 415.554C422.813 415.554 421.744 416.227 421.13 417.158H419.368L420.496 409.336H428.575V410.92H422.06L421.169 415.831H421.209C421.981 414.722 423.229 414.009 424.793 414.009C427.288 414.009 429.406 415.831 429.406 418.662C429.406 421.573 427.169 423.494 424.278 423.494ZM430.766 423.197V421.217H432.647V423.197H430.766ZM439.148 423.494C436.435 423.494 434.435 421.811 434.158 419.316H435.94C436.118 420.86 437.445 421.949 439.148 421.949C441.049 421.949 442.415 420.603 442.415 418.702C442.415 416.781 440.989 415.554 439.128 415.554C437.683 415.554 436.613 416.227 436 417.158H434.237L435.366 409.336H443.445V410.92H436.93L436.039 415.831H436.079C436.851 414.722 438.098 414.009 439.663 414.009C442.158 414.009 444.276 415.831 444.276 418.662C444.276 421.573 442.039 423.494 439.148 423.494ZM447.483 423.197L457.145 409.336H458.868L449.205 423.197H447.483ZM445.305 412.603C445.305 410.326 446.77 409.059 448.611 409.059C450.473 409.059 451.938 410.326 451.938 412.603C451.938 414.841 450.473 416.128 448.611 416.128C446.77 416.128 445.305 414.841 445.305 412.603ZM446.79 412.603C446.79 414.069 447.602 414.821 448.611 414.821C449.621 414.821 450.433 414.069 450.433 412.603C450.433 411.138 449.621 410.366 448.611 410.366C447.602 410.366 446.79 411.138 446.79 412.603ZM454.413 419.949C454.413 417.672 455.878 416.405 457.72 416.405C459.581 416.405 461.046 417.672 461.046 419.949C461.046 422.187 459.581 423.474 457.72 423.474C455.878 423.474 454.413 422.187 454.413 419.949ZM455.898 419.949C455.898 421.415 456.71 422.167 457.72 422.167C458.769 422.167 459.541 421.494 459.541 419.949C459.541 418.484 458.729 417.712 457.72 417.712C456.71 417.712 455.898 418.484 455.898 419.949Z" fill="#0D4A2F"/>
<rect width="130.349" height="59.0598" rx="25.6309" transform="matrix(1 0 0 -1 698.766 539.733)" fill="#F8FDE5"/>
<g filter="url(#filter1_d_2324_7480)">
<rect width="118.803" height="49.5013" rx="19.8005" transform="matrix(1 0 0 -1 704.567 535.07)" fill="#F6FFD9"/>
<rect x="-1.16504" y="1.16504" width="121.133" height="51.8314" rx="20.9656" transform="matrix(1 0 0 -1 704.567 537.4)" stroke="#D6FF4A" stroke-width="2.33008"/>
</g>
<path d="M738.229 511.349V509.765H742.308V505.508H743.892V509.765H747.971V511.349H743.892V515.646H742.308V511.349H738.229ZM754.372 516.695C751.659 516.695 749.659 515.012 749.382 512.517H751.164C751.342 514.061 752.669 515.151 754.372 515.151C756.273 515.151 757.639 513.804 757.639 511.903C757.639 509.983 756.213 508.755 754.352 508.755C752.907 508.755 751.837 509.428 751.224 510.359H749.461L750.59 502.538H758.669V504.122H752.154L751.263 509.032H751.303C752.075 507.923 753.322 507.211 754.887 507.211C757.382 507.211 759.5 509.032 759.5 511.864C759.5 514.774 757.263 516.695 754.372 516.695ZM760.86 516.398V514.418H762.741V516.398H760.86ZM769.242 516.695C766.529 516.695 764.529 515.012 764.252 512.517H766.034C766.212 514.061 767.539 515.151 769.242 515.151C771.142 515.151 772.509 513.804 772.509 511.903C772.509 509.983 771.083 508.755 769.222 508.755C767.776 508.755 766.707 509.428 766.093 510.359H764.331L765.46 502.538H773.538V504.122H767.024L766.133 509.032H766.173C766.945 507.923 768.192 507.211 769.756 507.211C772.251 507.211 774.37 509.032 774.37 511.864C774.37 514.774 772.132 516.695 769.242 516.695ZM777.577 516.398L787.239 502.538H788.962L779.299 516.398H777.577ZM775.398 505.805C775.398 503.528 776.864 502.26 778.705 502.26C780.566 502.26 782.032 503.528 782.032 505.805C782.032 508.042 780.566 509.329 778.705 509.329C776.864 509.329 775.398 508.042 775.398 505.805ZM776.884 505.805C776.884 507.27 777.695 508.022 778.705 508.022C779.715 508.022 780.527 507.27 780.527 505.805C780.527 504.339 779.715 503.567 778.705 503.567C777.695 503.567 776.884 504.339 776.884 505.805ZM784.507 513.151C784.507 510.874 785.972 509.606 787.813 509.606C789.675 509.606 791.14 510.874 791.14 513.151C791.14 515.388 789.675 516.675 787.813 516.675C785.972 516.675 784.507 515.388 784.507 513.151ZM785.992 513.151C785.992 514.616 786.804 515.368 787.813 515.368C788.863 515.368 789.635 514.695 789.635 513.151C789.635 511.685 788.823 510.913 787.813 510.913C786.804 510.913 785.992 511.685 785.992 513.151Z" fill="#0D4A2F"/>
<rect width="130.349" height="59.0598" rx="25.6309" transform="matrix(1 0 0 -1 535.273 636.404)" fill="#F8FDE5"/>
<g filter="url(#filter2_d_2324_7480)">
<rect width="118.803" height="49.5013" rx="19.8005" transform="matrix(1 0 0 -1 541.075 631.742)" fill="#F6FFD9"/>
<rect x="-1.16504" y="1.16504" width="121.133" height="51.8314" rx="20.9656" transform="matrix(1 0 0 -1 541.075 634.072)" stroke="#D6FF4A" stroke-width="2.33008"/>
</g>
<path d="M574.737 608.02V606.436H578.816V602.179H580.4V606.436H584.479V608.02H580.4V612.316H578.816V608.02H574.737ZM590.88 613.366C588.167 613.366 586.167 611.683 585.89 609.188H587.672C587.85 610.732 589.177 611.821 590.88 611.821C592.781 611.821 594.147 610.475 594.147 608.574C594.147 606.653 592.721 605.426 590.86 605.426C589.414 605.426 588.345 606.099 587.731 607.03H585.969L587.098 599.208H595.176V600.793H588.662L587.771 605.703H587.811C588.583 604.594 589.83 603.881 591.395 603.881C593.889 603.881 596.008 605.703 596.008 608.535C596.008 611.445 593.771 613.366 590.88 613.366ZM597.368 613.069V611.089H599.249V613.069H597.368ZM605.749 613.366C603.037 613.366 601.037 611.683 600.76 609.188H602.542C602.72 610.732 604.047 611.821 605.749 611.821C607.65 611.821 609.017 610.475 609.017 608.574C609.017 606.653 607.591 605.426 605.73 605.426C604.284 605.426 603.215 606.099 602.601 607.03H600.839L601.968 599.208H610.046V600.793H603.532L602.641 605.703H602.68C603.453 604.594 604.7 603.881 606.264 603.881C608.759 603.881 610.878 605.703 610.878 608.535C610.878 611.445 608.64 613.366 605.749 613.366ZM614.084 613.069L623.747 599.208H625.47L615.807 613.069H614.084ZM611.906 602.476C611.906 600.199 613.372 598.931 615.213 598.931C617.074 598.931 618.539 600.199 618.539 602.476C618.539 604.713 617.074 606 615.213 606C613.372 606 611.906 604.713 611.906 602.476ZM613.391 602.476C613.391 603.941 614.203 604.693 615.213 604.693C616.223 604.693 617.035 603.941 617.035 602.476C617.035 601.01 616.223 600.238 615.213 600.238C614.203 600.238 613.391 601.01 613.391 602.476ZM621.015 609.822C621.015 607.545 622.48 606.277 624.321 606.277C626.182 606.277 627.648 607.545 627.648 609.822C627.648 612.059 626.182 613.346 624.321 613.346C622.48 613.346 621.015 612.059 621.015 609.822ZM622.5 609.822C622.5 611.287 623.311 612.039 624.321 612.039C625.371 612.039 626.143 611.366 626.143 609.822C626.143 608.356 625.331 607.584 624.321 607.584C623.311 607.584 622.5 608.356 622.5 609.822Z" fill="#0D4A2F"/>
<circle cx="599.311" cy="190.401" r="59.4011" fill="#F3FECF" fill-opacity="0.2"/>
<circle cx="599.314" cy="190.401" r="50.7945" fill="#E9FDA6" fill-opacity="0.2"/>
<circle cx="599.312" cy="190.402" r="43.2687" fill="#E9FDA6" fill-opacity="0.6"/>
<path d="M600.067 168.004V167.983V168.004Z" fill="#E9FDA6" stroke="#E9FDA6" stroke-width="1.50766" stroke-linecap="round" stroke-linejoin="round"/>
<g filter="url(#filter3_d_2324_7480)">
<path d="M600.092 225.884C619.902 225.884 635.961 209.825 635.961 190.015C635.961 170.206 619.902 154.146 600.092 154.146C580.282 154.146 564.223 170.206 564.223 190.015C564.223 209.825 580.282 225.884 600.092 225.884Z" fill="#E9FDA6"/>
</g>
<path d="M601.511 185.54H600.942C600.263 187.909 598.399 189.773 596.03 190.452V191.021C598.399 191.7 600.263 193.564 600.942 195.934H601.511C602.19 193.564 604.054 191.7 606.424 191.021V190.452C604.054 189.773 602.19 187.909 601.511 185.54Z" fill="#0D4A2F"/>
<path d="M610.656 192.994C609.638 197.255 605.806 200.429 601.232 200.429C595.876 200.429 591.531 196.084 591.531 190.728C591.531 185.371 595.876 181.027 601.232 181.027C605.806 181.027 609.631 184.2 610.656 188.462C613.075 187.228 615.223 185.545 616.983 183.507C614.246 177.548 608.224 173.404 601.239 173.404C591.67 173.404 583.916 181.158 583.916 190.728C583.916 200.297 591.67 208.051 601.239 208.051C608.231 208.051 614.246 203.907 616.983 197.948C615.223 195.911 613.082 194.22 610.663 192.987L610.656 192.994Z" fill="#0D4A2F"/>
<rect width="130.349" height="59.0598" rx="25.6309" transform="matrix(1 0 0 -1 534.102 350.221)" fill="#F8FDE5"/>
<g filter="url(#filter4_d_2324_7480)">
<rect width="118.803" height="49.5013" rx="19.8005" transform="matrix(1 0 0 -1 539.903 345.558)" fill="#F6FFD9"/>
<rect x="-1.16504" y="1.16504" width="121.133" height="51.8314" rx="20.9656" transform="matrix(1 0 0 -1 539.903 347.888)" stroke="#D6FF4A" stroke-width="2.33008"/>
</g>
<path d="M579.72 321.836V320.252H583.799V315.995H585.383V320.252H589.462V321.836H585.383V326.133H583.799V321.836H579.72ZM596.376 327.182C593.03 327.182 590.852 324.727 590.852 320.014C590.852 315.183 592.99 312.728 596.337 312.728C599.168 312.728 601.089 314.708 601.089 317.084H599.307C599.307 315.441 598.059 314.272 596.337 314.272C594.377 314.272 592.713 316.054 592.713 319.955V320.41H592.753C593.367 318.747 594.832 317.698 596.713 317.698C599.208 317.698 601.426 319.539 601.426 322.41C601.426 325.341 599.267 327.182 596.376 327.182ZM593.07 322.391C593.07 324.331 594.495 325.638 596.297 325.638C598.099 325.638 599.564 324.331 599.564 322.391C599.564 320.47 598.139 319.242 596.317 319.242C594.495 319.242 593.07 320.47 593.07 322.391ZM605.184 326.885L614.846 313.025H616.569L606.906 326.885H605.184ZM603.006 316.292C603.006 314.015 604.471 312.748 606.312 312.748C608.173 312.748 609.639 314.015 609.639 316.292C609.639 318.529 608.173 319.816 606.312 319.816C604.471 319.816 603.006 318.529 603.006 316.292ZM604.491 316.292C604.491 317.757 605.302 318.51 606.312 318.51C607.322 318.51 608.134 317.757 608.134 316.292C608.134 314.827 607.322 314.055 606.312 314.055C605.302 314.055 604.491 314.827 604.491 316.292ZM612.114 323.638C612.114 321.361 613.579 320.094 615.42 320.094C617.282 320.094 618.747 321.361 618.747 323.638C618.747 325.875 617.282 327.162 615.42 327.162C613.579 327.162 612.114 325.875 612.114 323.638ZM613.599 323.638C613.599 325.103 614.411 325.856 615.42 325.856C616.47 325.856 617.242 325.182 617.242 323.638C617.242 322.173 616.43 321.401 615.42 321.401C614.411 321.401 613.599 322.173 613.599 323.638Z" fill="#0D4A2F"/>
<mask id="path-53-inside-3_2324_7480" fill="white">
<path d="M593.699 236.814H604.854V295.481H593.699V236.814Z"/>
</mask>
<path d="M593.699 236.814H604.854V295.481H593.699V236.814Z" fill="#D6FF4A"/>
<path d="M603.301 236.814V295.481H606.408V236.814H603.301ZM595.253 295.481V236.814H592.146V295.481H595.253Z" fill="#E9FEA2" fill-opacity="0.4" mask="url(#path-53-inside-3_2324_7480)"/>
<mask id="path-55-inside-4_2324_7480" fill="white">
<path d="M759.289 268.985H762.291C765.723 268.985 768.505 271.767 768.505 275.199V294.449H759.289V268.985Z"/>
</mask>
<path d="M759.289 268.985H762.291C765.723 268.985 768.505 271.767 768.505 275.199V294.449H759.289V268.985Z" fill="white" fill-opacity="0.4"/>
<path d="M759.289 268.985H762.291C765.723 268.985 768.505 271.767 768.505 275.199V294.449H759.289V268.985Z" fill="#FAFBF8"/>
<path d="M757.736 267.432H762.291C766.581 267.432 770.058 270.909 770.058 275.199H766.951C766.951 272.625 764.865 270.539 762.291 270.539H760.842L757.736 267.432ZM768.505 294.449H759.289H768.505ZM757.736 294.449V267.432L760.842 270.539V294.449H757.736ZM762.291 267.432C766.581 267.432 770.058 270.909 770.058 275.199V294.449H766.951V275.199C766.951 272.625 764.865 270.539 762.291 270.539V267.432Z" fill="#ECECEC" mask="url(#path-55-inside-4_2324_7480)"/>
<mask id="path-57-inside-5_2324_7480" fill="white">
<path d="M759.289 347.126H768.505V390.68H759.289V347.126Z"/>
</mask>
<path d="M759.289 347.126H768.505V390.68H759.289V347.126Z" fill="white" fill-opacity="0.4"/>
<path d="M759.289 347.126H768.505V390.68H759.289V347.126Z" fill="#F7F9FA" fill-opacity="0.5"/>
<path d="M766.951 347.126V390.68H770.058V347.126H766.951ZM760.842 390.68V347.126H757.736V390.68H760.842Z" fill="#ECECEC" mask="url(#path-57-inside-5_2324_7480)"/>
<mask id="path-59-inside-6_2324_7480" fill="white">
<path d="M595.84 347.126H605.055V390.68H595.84V347.126Z"/>
</mask>
<path d="M595.84 347.126H605.055V390.68H595.84V347.126Z" fill="white" fill-opacity="0.4"/>
<path d="M595.84 347.126H605.055V390.68H595.84V347.126Z" fill="#F7F9FA" fill-opacity="0.5"/>
<path d="M595.84 347.126H605.055V390.68H595.84V347.126Z" fill="#FAFBF8"/>
<path d="M603.502 347.126V390.68H606.609V347.126H603.502ZM597.393 390.68V347.126H594.286V390.68H597.393Z" fill="#ECECEC" mask="url(#path-59-inside-6_2324_7480)"/>
<mask id="path-61-inside-7_2324_7480" fill="white">
<path d="M430.113 347.126H439.329V390.68H430.113V347.126Z"/>
</mask>
<path d="M430.113 347.126H439.329V390.68H430.113V347.126Z" fill="white" fill-opacity="0.4"/>
<path d="M430.113 347.126H439.329V390.68H430.113V347.126Z" fill="#F7F9FA" fill-opacity="0.5"/>
<path d="M430.113 347.126H439.329V390.68H430.113V347.126Z" fill="#FAFBF8"/>
<path d="M437.776 347.126V390.68H440.882V347.126H437.776ZM431.667 390.68V347.126H428.56V390.68H431.667Z" fill="#ECECEC" mask="url(#path-61-inside-7_2324_7480)"/>
<mask id="path-63-inside-8_2324_7480" fill="white">
<path d="M429.715 363.717H439.329V392.253H429.715V363.717Z"/>
</mask>
<path d="M429.715 363.717H439.329V392.253H429.715V363.717Z" fill="#D6FF4A"/>
<path d="M437.775 363.717V392.253H440.882V363.717H437.775ZM432.822 392.253V363.717H426.608V392.253H432.822Z" fill="#E9FEA2" fill-opacity="0.4" mask="url(#path-63-inside-8_2324_7480)"/>
<mask id="path-65-inside-9_2324_7480" fill="white">
<path d="M597.48 363.717L597.48 373.924L437.8 373.924L437.8 363.717L597.48 363.717Z"/>
</mask>
<path d="M597.48 363.717L597.48 373.924L437.8 373.924L437.8 363.717L597.48 363.717Z" fill="#D6FF4A"/>
<path d="M597.48 372.37L437.8 372.37L437.8 375.477L597.48 375.477L597.48 372.37ZM437.8 365.27L597.48 365.27L597.48 362.163L437.8 362.163L437.8 365.27Z" fill="#E9FEA2" fill-opacity="0.4" mask="url(#path-65-inside-9_2324_7480)"/>
<mask id="path-67-inside-10_2324_7480" fill="white">
<path d="M760.816 364.295L760.816 373.511L603.48 373.511L603.48 364.295L760.816 364.295Z"/>
</mask>
<path d="M760.816 364.295L760.816 373.511L603.48 373.511L603.48 364.295L760.816 364.295Z" fill="#FAFBF8"/>
<path d="M760.816 371.957L603.48 371.957L603.48 375.064L760.816 375.064L760.816 371.957ZM603.48 365.848L760.816 365.848L760.816 362.742L603.48 362.742L603.48 365.848Z" fill="#ECECEC" mask="url(#path-67-inside-10_2324_7480)"/>
<mask id="path-69-inside-11_2324_7480" fill="white">
<path d="M430.113 443.308H439.329V486.862H430.113V443.308Z"/>
</mask>
<path d="M430.113 443.308H439.329V486.862H430.113V443.308Z" fill="white" fill-opacity="0.4"/>
<path d="M430.113 443.308H439.329V486.862H430.113V443.308Z" fill="#F7F9FA" fill-opacity="0.5"/>
<path d="M437.776 443.308V486.862H440.882V443.308H437.776ZM431.667 486.862V443.308H428.56V486.862H431.667Z" fill="#ECECEC" mask="url(#path-69-inside-11_2324_7480)"/>
<mask id="path-71-inside-12_2324_7480" fill="white">
<path d="M430.113 537.4H439.329V580.954H430.113V537.4Z"/>
</mask>
<path d="M430.113 537.4H439.329V580.954H430.113V537.4Z" fill="white" fill-opacity="0.4"/>
<path d="M430.113 537.4H439.329V580.954H430.113V537.4Z" fill="#F7F9FA" fill-opacity="0.5"/>
<path d="M437.776 537.4V580.954H440.882V537.4H437.776ZM431.667 580.954V537.4H428.56V580.954H431.667Z" fill="#ECECEC" mask="url(#path-71-inside-12_2324_7480)"/>
<mask id="path-73-inside-13_2324_7480" fill="white">
<path d="M759.289 443.051H768.505V485.569H759.289V443.051Z"/>
</mask>
<path d="M759.289 443.051H768.505V485.569H759.289V443.051Z" fill="white" fill-opacity="0.4"/>
<path d="M759.289 443.051H768.505V485.569H759.289V443.051Z" fill="#F7F9FA" fill-opacity="0.5"/>
<path d="M766.951 443.051V485.569H770.058V443.051H766.951ZM760.842 485.569V443.051H757.736V485.569H760.842Z" fill="#ECECEC" mask="url(#path-73-inside-13_2324_7480)"/>
<mask id="path-75-inside-14_2324_7480" fill="white">
<path d="M759.289 535.07H768.505V580.712H759.289V535.07Z"/>
</mask>
<path d="M759.289 535.07H768.505V580.712H759.289V535.07Z" fill="white" fill-opacity="0.4"/>
<path d="M759.289 535.07H768.505V580.712H759.289V535.07Z" fill="#F7F9FA" fill-opacity="0.5"/>
<path d="M766.951 535.07V580.712H770.058V535.07H766.951ZM760.842 580.712V535.07H757.736V580.712H760.842Z" fill="#ECECEC" mask="url(#path-75-inside-14_2324_7480)"/>
<mask id="path-77-inside-15_2324_7480" fill="white">
<path d="M593.855 535.07H603.071V580.712H593.855V535.07Z"/>
</mask>
<path d="M593.855 535.07H603.071V580.712H593.855V535.07Z" fill="white" fill-opacity="0.4"/>
<path d="M593.855 535.07H603.071V580.712H593.855V535.07Z" fill="#F7F9FA" fill-opacity="0.5"/>
<path d="M601.518 535.07V580.712H604.625V535.07H601.518ZM595.409 580.712V535.07H592.302V580.712H595.409Z" fill="#ECECEC" mask="url(#path-77-inside-15_2324_7480)"/>
<mask id="path-79-inside-16_2324_7480" fill="white">
<path d="M595.84 443.051H605.055V487.118H595.84V443.051Z"/>
</mask>
<path d="M595.84 443.051H605.055V487.118H595.84V443.051Z" fill="white" fill-opacity="0.4"/>
<path d="M595.84 443.051H605.055V487.118H595.84V443.051Z" fill="#F7F9FA" fill-opacity="0.5"/>
<path d="M603.502 443.051V487.118H606.609V443.051H603.502ZM597.393 487.118V443.051H594.286V487.118H597.393Z" fill="#ECECEC" mask="url(#path-79-inside-16_2324_7480)"/>
<mask id="path-81-inside-17_2324_7480" fill="white">
<path d="M430.113 275.199C430.113 271.767 432.895 268.985 436.327 268.985H439.329V294.515H430.113V275.199Z"/>
</mask>
<path d="M430.113 275.199C430.113 271.767 432.895 268.985 436.327 268.985H439.329V294.515H430.113V275.199Z" fill="white" fill-opacity="0.4"/>
<path d="M430.113 275.199C430.113 271.767 432.895 268.985 436.327 268.985H439.329V294.515H430.113V275.199Z" fill="#F9FBF5"/>
<path d="M428.56 275.199C428.56 270.909 432.037 267.432 436.327 267.432H440.882L437.776 270.539H436.327C433.753 270.539 431.667 272.625 431.667 275.199H428.56ZM439.329 294.515H430.113H439.329ZM428.56 294.515V275.199C428.56 270.909 432.037 267.432 436.327 267.432V270.539C433.753 270.539 431.667 272.625 431.667 275.199V294.515H428.56ZM440.882 267.432V294.515H437.776V270.539L440.882 267.432Z" fill="#ECECEC" mask="url(#path-81-inside-17_2324_7480)"/>
<rect x="595.938" y="236.814" width="6.43048" height="59.2418" fill="#F6FFD9"/>
<rect x="431.367" y="365.688" width="6.43048" height="27.2647" fill="#F6FFD9"/>
<mask id="path-85-inside-18_2324_7480" fill="white">
<path d="M594.875 347.126H605.622V373.923H594.875V347.126Z"/>
</mask>
<path d="M594.875 347.126H605.622V373.923H594.875V347.126Z" fill="#D6FF4A"/>
<path d="M604.069 347.126V373.923H607.175V347.126H604.069ZM596.428 373.923V347.126H593.322V373.923H596.428Z" fill="#E9FEA2" fill-opacity="0.4" mask="url(#path-85-inside-18_2324_7480)"/>
<path d="M596.992 345.558H603.423V372.119H596.992V345.558Z" fill="#F6FFD9"/>
<rect x="597.48" y="365.688" width="6.43048" height="159.68" transform="rotate(90 597.48 365.688)" fill="#F6FFD9"/>
<mask id="path-89-inside-19_2324_7480" fill="white">
<path d="M768.855 485.569L759.08 485.569L759.08 462.241L768.855 462.241L768.855 485.569Z"/>
</mask>
<path d="M768.855 485.569L759.08 485.569L759.08 462.241L768.855 462.241L768.855 485.569Z" fill="#D6FF4A"/>
<path d="M760.633 485.569L760.633 462.241L757.527 462.241L757.527 485.569L760.633 485.569ZM767.302 462.241L767.302 485.569L770.409 485.569L770.409 462.241L767.302 462.241Z" fill="#E9FEA2" fill-opacity="0.4" mask="url(#path-89-inside-19_2324_7480)"/>
<mask id="path-91-inside-20_2324_7480" fill="white">
<path d="M768.859 558.398L758.935 558.398L758.935 535.07L768.859 535.07L768.859 558.398Z"/>
</mask>
<path d="M768.859 558.398L758.935 558.398L758.935 535.07L768.859 535.07L768.859 558.398Z" fill="#D6FF4A"/>
<path d="M760.488 558.398L760.488 535.07L757.381 535.07L757.381 558.398L760.488 558.398ZM767.306 535.07L767.306 558.398L770.413 558.398L770.413 535.07L767.306 535.07Z" fill="#E9FEA2" fill-opacity="0.4" mask="url(#path-91-inside-20_2324_7480)"/>
<mask id="path-93-inside-21_2324_7480" fill="white">
<path d="M768.855 461.204L768.855 470.485L437.797 470.485L437.797 461.204L768.855 461.204Z"/>
</mask>
<path d="M768.855 461.204L768.855 470.485L437.797 470.485L437.797 461.204L768.855 461.204Z" fill="#DEFF6D"/>
<path d="M768.855 468.932L437.797 468.932L437.797 472.038L768.855 472.038L768.855 468.932ZM437.797 462.757L768.855 462.757L768.855 459.651L437.797 459.651L437.797 462.757Z" fill="#E9FEA2" fill-opacity="0.4" mask="url(#path-93-inside-21_2324_7480)"/>
<mask id="path-95-inside-22_2324_7480" fill="white">
<path d="M768.859 556.289L768.859 565.754L593.854 565.754L593.854 556.289L768.859 556.289Z"/>
</mask>
<path d="M768.859 556.289L768.859 565.754L593.854 565.754L593.854 556.289L768.859 556.289Z" fill="#D6FF4A"/>
<path d="M768.859 564.201L593.854 564.201L593.854 567.308L768.859 567.308L768.859 564.201ZM593.854 557.842L768.859 557.842L768.859 554.736L593.854 554.736L593.854 557.842Z" fill="#E9FEA2" fill-opacity="0.4" mask="url(#path-95-inside-22_2324_7480)"/>
<path d="M760.68 462.662H767.335V486.916H760.68V462.662Z" fill="#F6FFD9"/>
<path d="M760.68 535.07H767.11V559.745H760.68V535.07Z" fill="#F6FFD9"/>
<mask id="path-99-inside-23_2324_7480" fill="white">
<path d="M429.238 443.308H440.012V470.485H429.238V443.308Z"/>
</mask>
<path d="M429.238 443.308H440.012V470.485H429.238V443.308Z" fill="#D6FF4A"/>
<path d="M438.458 443.308V470.485H441.565V443.308H438.458ZM432.345 470.485V443.308H426.132V470.485H432.345Z" fill="#E9FEA2" fill-opacity="0.4" mask="url(#path-99-inside-23_2324_7480)"/>
<mask id="path-101-inside-24_2324_7480" fill="white">
<path d="M593.691 556.289H603.236V582.241H593.691V556.289Z"/>
</mask>
<path d="M593.691 556.289H603.236V582.241H593.691V556.289Z" fill="#D6FF4A"/>
<path d="M601.683 556.289V582.241H604.79V556.289H601.683ZM596.798 582.241V556.289H590.585V582.241H596.798Z" fill="#E9FEA2" fill-opacity="0.4" mask="url(#path-101-inside-24_2324_7480)"/>
<rect x="431.367" y="441.365" width="6.43048" height="27.7273" fill="#F6FFD9"/>
<rect x="595.246" y="557.746" width="6.43048" height="25.7849" fill="#F6FFD9"/>
<rect x="767.336" y="462.662" width="6.43048" height="329.539" transform="rotate(90 767.336 462.662)" fill="#F6FFD9"/>
<rect x="767.117" y="557.746" width="6.43048" height="171.867" transform="rotate(90 767.117 557.746)" fill="#F6FFD9"/>
<rect width="644" height="565" transform="translate(292 108)" fill="url(#paint0_linear_2324_7480)"/>
<path d="M1072.85 630.24C1070.24 630.24 1068.48 628.416 1068.48 625.6C1068.48 622.784 1070.11 620.96 1072.85 620.96C1075.34 620.96 1076.72 622.576 1076.91 624.56H1075.41C1075.31 623.296 1074.42 622.208 1072.85 622.208C1071.07 622.208 1069.98 623.616 1069.98 625.6C1069.98 627.696 1071.23 628.992 1072.85 628.992C1074.4 628.992 1075.26 627.792 1075.41 626.816H1076.91C1076.67 628.624 1075.26 630.24 1072.85 630.24ZM1082.07 630.24C1079.64 630.24 1077.71 628.56 1077.71 625.6C1077.71 622.64 1079.64 620.96 1082.07 620.96C1084.51 620.96 1086.44 622.64 1086.44 625.6C1086.44 628.56 1084.51 630.24 1082.07 630.24ZM1079.21 625.6C1079.21 627.84 1080.47 628.992 1082.07 628.992C1083.67 628.992 1084.94 627.84 1084.94 625.6C1084.94 623.36 1083.67 622.208 1082.07 622.208C1080.47 622.208 1079.21 623.36 1079.21 625.6ZM1089.85 630L1086.46 621.2H1088.04L1090.59 628.224H1090.6L1093.15 621.2H1094.73L1091.34 630H1089.85ZM1099.06 630.24C1096.47 630.24 1094.74 628.4 1094.74 625.6C1094.74 622.768 1096.5 620.96 1099.03 620.96C1101.39 620.96 1103.2 622.528 1103.2 625.136V626.08H1096.26C1096.37 627.728 1097.38 628.992 1099.06 628.992C1100.27 628.992 1101.22 628.336 1101.57 627.296H1103.12C1102.75 629.024 1101.15 630.24 1099.06 630.24ZM1096.29 624.848H1101.7C1101.7 623.28 1100.71 622.208 1099.07 622.208C1097.38 622.208 1096.48 623.36 1096.29 624.848ZM1103.93 630V628.4H1105.45V630H1103.93ZM1106.55 620.176C1106.55 618.464 1107.51 617.504 1109.21 617.504H1112.22V618.784H1109.21C1108.43 618.784 1107.99 619.28 1107.99 620.176V621.2H1111.31C1111.79 621.2 1112.15 621.568 1112.15 622.048V630H1110.71V622.48H1107.99V630H1106.55V622.48H1105.43V621.2H1106.55V620.176ZM1114.16 630V621.2H1115.56V622.848H1115.6C1116.12 621.68 1117.15 620.96 1118.51 620.96C1120.36 620.96 1121.48 622.288 1121.48 624.72V630H1120.04V624.864C1120.04 622.96 1119.21 622.24 1118.06 622.24C1116.81 622.24 1115.6 623.104 1115.6 625.232V630H1114.16ZM1128.89 628.176C1128.33 629.584 1127.17 630.24 1125.78 630.24C1124.1 630.24 1122.77 629.28 1122.77 627.456C1122.77 625.472 1124.37 624.704 1126.12 624.704H1127.51C1128.39 624.704 1128.84 624.336 1128.84 623.648C1128.84 622.688 1127.96 622.208 1126.85 622.208C1125.56 622.208 1124.65 622.864 1124.55 624.048H1123.11C1123.24 622.176 1124.47 620.96 1126.85 620.96C1129.29 620.96 1130.28 622.224 1130.28 623.952V628.16C1130.28 628.576 1130.42 628.72 1130.84 628.72H1131.24V630H1130.29C1129.45 630 1128.92 629.488 1128.92 628.688V628.176H1128.89ZM1124.28 627.456C1124.28 628.272 1124.79 628.992 1126.05 628.992C1127.51 628.992 1128.84 628.032 1128.84 625.968V624.976H1128.81C1128.5 625.616 1127.94 625.936 1126.87 625.936H1126.15C1124.77 625.936 1124.28 626.656 1124.28 627.456ZM1132.39 630V621.2H1133.8V622.848H1133.83C1134.36 621.68 1135.38 620.96 1136.74 620.96C1138.6 620.96 1139.72 622.288 1139.72 624.72V630H1138.28V624.864C1138.28 622.96 1137.45 622.24 1136.29 622.24C1135.05 622.24 1133.83 623.104 1133.83 625.232V630H1132.39ZM1145.42 630.24C1142.81 630.24 1141.05 628.416 1141.05 625.6C1141.05 622.784 1142.69 620.96 1145.42 620.96C1147.92 620.96 1149.29 622.576 1149.49 624.56H1147.98C1147.89 623.296 1146.99 622.208 1145.42 622.208C1143.65 622.208 1142.56 623.616 1142.56 625.6C1142.56 627.696 1143.81 628.992 1145.42 628.992C1146.97 628.992 1147.84 627.792 1147.98 626.816H1149.49C1149.25 628.624 1147.84 630.24 1145.42 630.24ZM1154.6 630.24C1152.01 630.24 1150.28 628.4 1150.28 625.6C1150.28 622.768 1152.04 620.96 1154.57 620.96C1156.94 620.96 1158.74 622.528 1158.74 625.136V626.08H1151.8C1151.91 627.728 1152.92 628.992 1154.6 628.992C1155.82 628.992 1156.76 628.336 1157.11 627.296H1158.66C1158.3 629.024 1156.7 630.24 1154.6 630.24ZM1151.83 624.848H1157.24C1157.24 623.28 1156.25 622.208 1154.62 622.208C1152.92 622.208 1152.02 623.36 1151.83 624.848Z" fill="#062819"/>
<path d="M64.3748 603.81H63.5876C62.6468 607.093 60.0644 609.675 56.7812 610.616V611.403C60.0644 612.344 62.6468 614.926 63.5876 618.21H64.3748C65.3156 614.926 67.898 612.344 71.1812 611.403V610.616C67.898 609.675 65.3156 607.093 64.3748 603.81Z" fill="#062819"/>
<path d="M77.0463 614.139C75.6351 620.043 70.3263 624.44 63.9903 624.44C56.5695 624.44 50.5504 618.421 50.5504 611C50.5504 603.579 56.5695 597.56 63.9903 597.56C70.3263 597.56 75.6255 601.957 77.0463 607.861C80.3967 606.152 83.3727 603.819 85.811 600.997C82.0191 592.741 73.6767 587 63.9999 587C50.7424 587 40 597.742 40 611C40 624.258 50.7424 635 63.9999 635C73.6863 635 82.0191 629.259 85.811 621.003C83.3727 618.181 80.4062 615.838 77.0559 614.13L77.0463 614.139Z" fill="#062819"/>
<path d="M108.573 595.635C116.934 595.635 121.897 601.28 122.406 607.376H115.293C114.841 604.554 112.643 602.182 108.573 602.182C103.6 602.182 100.72 605.792 100.72 610.995C100.72 616.198 103.6 619.808 108.573 619.808C112.643 619.808 114.841 617.437 115.293 614.614H122.406C121.897 620.71 116.982 626.365 108.573 626.365C99.4814 626.365 93.491 619.866 93.491 611.005C93.491 602.144 99.3086 595.645 108.573 595.645V595.635Z" fill="#062819"/>
<path d="M154.027 610.995C154.027 619.462 148.44 626.355 139.118 626.355C129.797 626.355 124.21 619.462 124.21 610.995C124.21 602.528 129.797 595.635 139.118 595.635C148.44 595.635 154.027 602.528 154.027 610.995ZM146.798 610.995C146.798 606.138 144.034 602.182 139.118 602.182C134.203 602.182 131.438 606.138 131.438 610.995C131.438 615.853 134.203 619.808 139.118 619.808C144.034 619.808 146.798 615.853 146.798 610.995Z" fill="#062819"/>
<path d="M160.577 596.097L167.182 617.899C167.518 619.032 167.576 620.097 167.576 621.172C167.576 621.566 167.691 622.017 168.257 622.017C168.824 622.017 168.939 621.566 168.939 621.172C168.939 620.097 168.996 619.022 169.332 617.899L175.937 596.097H183.617L175.131 621C174.132 623.937 171.368 625.915 168.257 625.915C165.147 625.915 162.392 623.937 161.384 621L152.897 596.097H160.577Z" fill="#062819"/>
<path d="M211.226 612.81H189.539C190.048 617.331 192.986 620.038 197.498 620.038C200.944 620.038 202.691 618.176 203.536 615.517H210.88C209.584 621.67 205.399 626.355 197.44 626.355C187.783 626.355 182.474 619.856 182.474 610.995C182.474 601.674 188.234 595.635 197.325 595.635C204.218 595.635 211.389 599.754 211.389 610.602C211.389 611.389 211.331 611.955 211.216 612.8L211.226 612.81ZM204.17 607.837C203.891 604.227 201.741 601.51 197.565 601.51C192.65 601.51 190.567 604.275 189.827 607.837H204.17Z" fill="#062819"/>
<defs>
<filter id="filter0_d_2324_7480" x="369.036" y="386.931" width="129.677" height="60.3752" filterUnits="userSpaceOnUse" color-interpolation-filters="sRGB">
<feFlood flood-opacity="0" result="BackgroundImageFix"/>
<feColorMatrix in="SourceAlpha" type="matrix" values="0 0 0 0 0 0 0 0 0 0 0 0 0 0 0 0 0 0 127 0" result="hardAlpha"/>
<feMorphology radius="3.10677" operator="dilate" in="SourceAlpha" result="effect1_dropShadow_2324_7480"/>
<feOffset/>
<feComposite in2="hardAlpha" operator="out"/>
<feColorMatrix type="matrix" values="0 0 0 0 0.94902 0 0 0 0 0.992157 0 0 0 0 0.803922 0 0 0 1 0"/>
<feBlend mode="normal" in2="BackgroundImageFix" result="effect1_dropShadow_2324_7480"/>
<feBlend mode="normal" in="SourceGraphic" in2="effect1_dropShadow_2324_7480" result="shape"/>
</filter>
<filter id="filter1_d_2324_7480" x="699.13" y="480.132" width="129.677" height="60.3752" filterUnits="userSpaceOnUse" color-interpolation-filters="sRGB">
<feFlood flood-opacity="0" result="BackgroundImageFix"/>
<feColorMatrix in="SourceAlpha" type="matrix" values="0 0 0 0 0 0 0 0 0 0 0 0 0 0 0 0 0 0 127 0" result="hardAlpha"/>
<feMorphology radius="3.10677" operator="dilate" in="SourceAlpha" result="effect1_dropShadow_2324_7480"/>
<feOffset/>
<feComposite in2="hardAlpha" operator="out"/>
<feColorMatrix type="matrix" values="0 0 0 0 0.94902 0 0 0 0 0.992157 0 0 0 0 0.803922 0 0 0 1 0"/>
<feBlend mode="normal" in2="BackgroundImageFix" result="effect1_dropShadow_2324_7480"/>
<feBlend mode="normal" in="SourceGraphic" in2="effect1_dropShadow_2324_7480" result="shape"/>
</filter>
<filter id="filter2_d_2324_7480" x="535.638" y="576.803" width="129.677" height="60.3752" filterUnits="userSpaceOnUse" color-interpolation-filters="sRGB">
<feFlood flood-opacity="0" result="BackgroundImageFix"/>
<feColorMatrix in="SourceAlpha" type="matrix" values="0 0 0 0 0 0 0 0 0 0 0 0 0 0 0 0 0 0 127 0" result="hardAlpha"/>
<feMorphology radius="3.10677" operator="dilate" in="SourceAlpha" result="effect1_dropShadow_2324_7480"/>
<feOffset/>
<feComposite in2="hardAlpha" operator="out"/>
<feColorMatrix type="matrix" values="0 0 0 0 0.94902 0 0 0 0 0.992157 0 0 0 0 0.803922 0 0 0 1 0"/>
<feBlend mode="normal" in2="BackgroundImageFix" result="effect1_dropShadow_2324_7480"/>
<feBlend mode="normal" in="SourceGraphic" in2="effect1_dropShadow_2324_7480" result="shape"/>
</filter>
<filter id="filter3_d_2324_7480" x="538.593" y="133.039" width="126.013" height="126.014" filterUnits="userSpaceOnUse" color-interpolation-filters="sRGB">
<feFlood flood-opacity="0" result="BackgroundImageFix"/>
<feColorMatrix in="SourceAlpha" type="matrix" values="0 0 0 0 0 0 0 0 0 0 0 0 0 0 0 0 0 0 127 0" result="hardAlpha"/>
<feOffset dx="1.50766" dy="6.03065"/>
<feGaussianBlur stdDeviation="13.569"/>
<feComposite in2="hardAlpha" operator="out"/>
<feColorMatrix type="matrix" values="0 0 0 0 0.913725 0 0 0 0 0.992157 0 0 0 0 0.65098 0 0 0 1 0"/>
<feBlend mode="normal" in2="BackgroundImageFix" result="effect1_dropShadow_2324_7480"/>
<feBlend mode="normal" in="SourceGraphic" in2="effect1_dropShadow_2324_7480" result="shape"/>
</filter>
<filter id="filter4_d_2324_7480" x="534.466" y="290.62" width="129.677" height="60.3752" filterUnits="userSpaceOnUse" color-interpolation-filters="sRGB">
<feFlood flood-opacity="0" result="BackgroundImageFix"/>
<feColorMatrix in="SourceAlpha" type="matrix" values="0 0 0 0 0 0 0 0 0 0 0 0 0 0 0 0 0 0 127 0" result="hardAlpha"/>
<feMorphology radius="3.10677" operator="dilate" in="SourceAlpha" result="effect1_dropShadow_2324_7480"/>
<feOffset/>
<feComposite in2="hardAlpha" operator="out"/>
<feColorMatrix type="matrix" values="0 0 0 0 0.94902 0 0 0 0 0.992157 0 0 0 0 0.803922 0 0 0 1 0"/>
<feBlend mode="normal" in2="BackgroundImageFix" result="effect1_dropShadow_2324_7480"/>
<feBlend mode="normal" in="SourceGraphic" in2="effect1_dropShadow_2324_7480" result="shape"/>
</filter>
<linearGradient id="paint0_linear_2324_7480" x1="322" y1="153.049" x2="322" y2="548.927" gradientUnits="userSpaceOnUse">
<stop stop-color="#FAFDF0" stop-opacity="0"/>
<stop offset="1" stop-color="#FAFDF0"/>
</linearGradient>
</defs>
</svg>
